<?xml version="1.0" encoding="utf-8" standalone="no"?>
<!DOCTYPE svg PUBLIC "-//W3C//DTD SVG 1.1//EN"
  "http://www.w3.org/Graphics/SVG/1.1/DTD/svg11.dtd">
<svg xmlns:xlink="http://www.w3.org/1999/xlink" width="935.925909pt" height="443.497pt" viewBox="0 0 935.925909 443.497" xmlns="http://www.w3.org/2000/svg" version="1.1">
 <metadata>
  <rdf:RDF xmlns:dc="http://purl.org/dc/elements/1.1/" xmlns:cc="http://creativecommons.org/ns#" xmlns:rdf="http://www.w3.org/1999/02/22-rdf-syntax-ns#">
   <cc:Work>
    <dc:type rdf:resource="http://purl.org/dc/dcmitype/StillImage"/>
    <dc:date>2026-03-16T12:57:10.435360</dc:date>
    <dc:format>image/svg+xml</dc:format>
    <dc:creator>
     <cc:Agent>
      <dc:title>Matplotlib v3.10.8, https://matplotlib.org/</dc:title>
     </cc:Agent>
    </dc:creator>
   </cc:Work>
  </rdf:RDF>
 </metadata>
 <defs>
  <style type="text/css">*{stroke-linejoin: round; stroke-linecap: butt}</style>
 </defs>
 <g id="figure_1">
  <g id="patch_1">
   <path d="M 0 443.497 
L 935.925909 443.497 
L 935.925909 0 
L 0 0 
z
" style="fill: #ffffff"/>
  </g>
  <g id="axes_1">
   <g id="patch_2">
    <path d="M 34.240625 388.03325 
L 872.691569 388.03325 
L 872.691569 39.84925 
L 34.240625 39.84925 
z
" style="fill: #ffffff"/>
   </g>
   <g id="matplotlib.axis_1">
    <g id="xtick_1">
     <g id="line2d_1">
      <defs>
       <path id="me8126e63cf" d="M 0 0 
L 0 3.5 
" style="stroke: #000000; stroke-width: 0.8"/>
      </defs>
      <g>
       <use xlink:href="#me8126e63cf" x="131.256055" y="388.03325" style="stroke: #000000; stroke-width: 0.8"/>
      </g>
     </g>
     <g id="text_1">
      <!-- Free-flow -->
      <g transform="translate(110.816211 401.871844) scale(0.09 -0.09)">
       <defs>
        <path id="DejaVuSans-46" d="M 628 4666 
L 3309 4666 
L 3309 4134 
L 1259 4134 
L 1259 2759 
L 3109 2759 
L 3109 2228 
L 1259 2228 
L 1259 0 
L 628 0 
L 628 4666 
z
" transform="scale(0.015625)"/>
        <path id="DejaVuSans-72" d="M 2631 2963 
Q 2534 3019 2420 3045 
Q 2306 3072 2169 3072 
Q 1681 3072 1420 2755 
Q 1159 2438 1159 1844 
L 1159 0 
L 581 0 
L 581 3500 
L 1159 3500 
L 1159 2956 
Q 1341 3275 1631 3429 
Q 1922 3584 2338 3584 
Q 2397 3584 2469 3576 
Q 2541 3569 2628 3553 
L 2631 2963 
z
" transform="scale(0.015625)"/>
        <path id="DejaVuSans-65" d="M 3597 1894 
L 3597 1613 
L 953 1613 
Q 991 1019 1311 708 
Q 1631 397 2203 397 
Q 2534 397 2845 478 
Q 3156 559 3463 722 
L 3463 178 
Q 3153 47 2828 -22 
Q 2503 -91 2169 -91 
Q 1331 -91 842 396 
Q 353 884 353 1716 
Q 353 2575 817 3079 
Q 1281 3584 2069 3584 
Q 2775 3584 3186 3129 
Q 3597 2675 3597 1894 
z
M 3022 2063 
Q 3016 2534 2758 2815 
Q 2500 3097 2075 3097 
Q 1594 3097 1305 2825 
Q 1016 2553 972 2059 
L 3022 2063 
z
" transform="scale(0.015625)"/>
        <path id="DejaVuSans-2d" d="M 313 2009 
L 1997 2009 
L 1997 1497 
L 313 1497 
L 313 2009 
z
" transform="scale(0.015625)"/>
        <path id="DejaVuSans-66" d="M 2375 4863 
L 2375 4384 
L 1825 4384 
Q 1516 4384 1395 4259 
Q 1275 4134 1275 3809 
L 1275 3500 
L 2222 3500 
L 2222 3053 
L 1275 3053 
L 1275 0 
L 697 0 
L 697 3053 
L 147 3053 
L 147 3500 
L 697 3500 
L 697 3744 
Q 697 4328 969 4595 
Q 1241 4863 1831 4863 
L 2375 4863 
z
" transform="scale(0.015625)"/>
        <path id="DejaVuSans-6c" d="M 603 4863 
L 1178 4863 
L 1178 0 
L 603 0 
L 603 4863 
z
" transform="scale(0.015625)"/>
        <path id="DejaVuSans-6f" d="M 1959 3097 
Q 1497 3097 1228 2736 
Q 959 2375 959 1747 
Q 959 1119 1226 758 
Q 1494 397 1959 397 
Q 2419 397 2687 759 
Q 2956 1122 2956 1747 
Q 2956 2369 2687 2733 
Q 2419 3097 1959 3097 
z
M 1959 3584 
Q 2709 3584 3137 3096 
Q 3566 2609 3566 1747 
Q 3566 888 3137 398 
Q 2709 -91 1959 -91 
Q 1206 -91 779 398 
Q 353 888 353 1747 
Q 353 2609 779 3096 
Q 1206 3584 1959 3584 
z
" transform="scale(0.015625)"/>
        <path id="DejaVuSans-77" d="M 269 3500 
L 844 3500 
L 1563 769 
L 2278 3500 
L 2956 3500 
L 3675 769 
L 4391 3500 
L 4966 3500 
L 4050 0 
L 3372 0 
L 2619 2869 
L 1863 0 
L 1184 0 
L 269 3500 
z
" transform="scale(0.015625)"/>
       </defs>
       <use xlink:href="#DejaVuSans-46"/>
       <use xlink:href="#DejaVuSans-72" transform="translate(50.269531 0)"/>
       <use xlink:href="#DejaVuSans-65" transform="translate(89.132812 0)"/>
       <use xlink:href="#DejaVuSans-65" transform="translate(150.65625 0)"/>
       <use xlink:href="#DejaVuSans-2d" transform="translate(212.179688 0)"/>
       <use xlink:href="#DejaVuSans-66" transform="translate(248.263672 0)"/>
       <use xlink:href="#DejaVuSans-6c" transform="translate(283.46875 0)"/>
       <use xlink:href="#DejaVuSans-6f" transform="translate(311.251953 0)"/>
       <use xlink:href="#DejaVuSans-77" transform="translate(372.433594 0)"/>
      </g>
      <!-- (unbounded 1P+1C) -->
      <g transform="translate(85.461524 411.949875) scale(0.09 -0.09)">
       <defs>
        <path id="DejaVuSans-28" d="M 1984 4856 
Q 1566 4138 1362 3434 
Q 1159 2731 1159 2009 
Q 1159 1288 1364 580 
Q 1569 -128 1984 -844 
L 1484 -844 
Q 1016 -109 783 600 
Q 550 1309 550 2009 
Q 550 2706 781 3412 
Q 1013 4119 1484 4856 
L 1984 4856 
z
" transform="scale(0.015625)"/>
        <path id="DejaVuSans-75" d="M 544 1381 
L 544 3500 
L 1119 3500 
L 1119 1403 
Q 1119 906 1312 657 
Q 1506 409 1894 409 
Q 2359 409 2629 706 
Q 2900 1003 2900 1516 
L 2900 3500 
L 3475 3500 
L 3475 0 
L 2900 0 
L 2900 538 
Q 2691 219 2414 64 
Q 2138 -91 1772 -91 
Q 1169 -91 856 284 
Q 544 659 544 1381 
z
M 1991 3584 
L 1991 3584 
z
" transform="scale(0.015625)"/>
        <path id="DejaVuSans-6e" d="M 3513 2113 
L 3513 0 
L 2938 0 
L 2938 2094 
Q 2938 2591 2744 2837 
Q 2550 3084 2163 3084 
Q 1697 3084 1428 2787 
Q 1159 2491 1159 1978 
L 1159 0 
L 581 0 
L 581 3500 
L 1159 3500 
L 1159 2956 
Q 1366 3272 1645 3428 
Q 1925 3584 2291 3584 
Q 2894 3584 3203 3211 
Q 3513 2838 3513 2113 
z
" transform="scale(0.015625)"/>
        <path id="DejaVuSans-62" d="M 3116 1747 
Q 3116 2381 2855 2742 
Q 2594 3103 2138 3103 
Q 1681 3103 1420 2742 
Q 1159 2381 1159 1747 
Q 1159 1113 1420 752 
Q 1681 391 2138 391 
Q 2594 391 2855 752 
Q 3116 1113 3116 1747 
z
M 1159 2969 
Q 1341 3281 1617 3432 
Q 1894 3584 2278 3584 
Q 2916 3584 3314 3078 
Q 3713 2572 3713 1747 
Q 3713 922 3314 415 
Q 2916 -91 2278 -91 
Q 1894 -91 1617 61 
Q 1341 213 1159 525 
L 1159 0 
L 581 0 
L 581 4863 
L 1159 4863 
L 1159 2969 
z
" transform="scale(0.015625)"/>
        <path id="DejaVuSans-64" d="M 2906 2969 
L 2906 4863 
L 3481 4863 
L 3481 0 
L 2906 0 
L 2906 525 
Q 2725 213 2448 61 
Q 2172 -91 1784 -91 
Q 1150 -91 751 415 
Q 353 922 353 1747 
Q 353 2572 751 3078 
Q 1150 3584 1784 3584 
Q 2172 3584 2448 3432 
Q 2725 3281 2906 2969 
z
M 947 1747 
Q 947 1113 1208 752 
Q 1469 391 1925 391 
Q 2381 391 2643 752 
Q 2906 1113 2906 1747 
Q 2906 2381 2643 2742 
Q 2381 3103 1925 3103 
Q 1469 3103 1208 2742 
Q 947 2381 947 1747 
z
" transform="scale(0.015625)"/>
        <path id="DejaVuSans-20" transform="scale(0.015625)"/>
        <path id="DejaVuSans-31" d="M 794 531 
L 1825 531 
L 1825 4091 
L 703 3866 
L 703 4441 
L 1819 4666 
L 2450 4666 
L 2450 531 
L 3481 531 
L 3481 0 
L 794 0 
L 794 531 
z
" transform="scale(0.015625)"/>
        <path id="DejaVuSans-50" d="M 1259 4147 
L 1259 2394 
L 2053 2394 
Q 2494 2394 2734 2622 
Q 2975 2850 2975 3272 
Q 2975 3691 2734 3919 
Q 2494 4147 2053 4147 
L 1259 4147 
z
M 628 4666 
L 2053 4666 
Q 2838 4666 3239 4311 
Q 3641 3956 3641 3272 
Q 3641 2581 3239 2228 
Q 2838 1875 2053 1875 
L 1259 1875 
L 1259 0 
L 628 0 
L 628 4666 
z
" transform="scale(0.015625)"/>
        <path id="DejaVuSans-2b" d="M 2944 4013 
L 2944 2272 
L 4684 2272 
L 4684 1741 
L 2944 1741 
L 2944 0 
L 2419 0 
L 2419 1741 
L 678 1741 
L 678 2272 
L 2419 2272 
L 2419 4013 
L 2944 4013 
z
" transform="scale(0.015625)"/>
        <path id="DejaVuSans-43" d="M 4122 4306 
L 4122 3641 
Q 3803 3938 3442 4084 
Q 3081 4231 2675 4231 
Q 1875 4231 1450 3742 
Q 1025 3253 1025 2328 
Q 1025 1406 1450 917 
Q 1875 428 2675 428 
Q 3081 428 3442 575 
Q 3803 722 4122 1019 
L 4122 359 
Q 3791 134 3420 21 
Q 3050 -91 2638 -91 
Q 1578 -91 968 557 
Q 359 1206 359 2328 
Q 359 3453 968 4101 
Q 1578 4750 2638 4750 
Q 3056 4750 3426 4639 
Q 3797 4528 4122 4306 
z
" transform="scale(0.015625)"/>
        <path id="DejaVuSans-29" d="M 513 4856 
L 1013 4856 
Q 1481 4119 1714 3412 
Q 1947 2706 1947 2009 
Q 1947 1309 1714 600 
Q 1481 -109 1013 -844 
L 513 -844 
Q 928 -128 1133 580 
Q 1338 1288 1338 2009 
Q 1338 2731 1133 3434 
Q 928 4138 513 4856 
z
" transform="scale(0.015625)"/>
       </defs>
       <use xlink:href="#DejaVuSans-28"/>
       <use xlink:href="#DejaVuSans-75" transform="translate(39.013672 0)"/>
       <use xlink:href="#DejaVuSans-6e" transform="translate(102.392578 0)"/>
       <use xlink:href="#DejaVuSans-62" transform="translate(165.771484 0)"/>
       <use xlink:href="#DejaVuSans-6f" transform="translate(229.248047 0)"/>
       <use xlink:href="#DejaVuSans-75" transform="translate(290.429688 0)"/>
       <use xlink:href="#DejaVuSans-6e" transform="translate(353.808594 0)"/>
       <use xlink:href="#DejaVuSans-64" transform="translate(417.1875 0)"/>
       <use xlink:href="#DejaVuSans-65" transform="translate(480.664062 0)"/>
       <use xlink:href="#DejaVuSans-64" transform="translate(542.1875 0)"/>
       <use xlink:href="#DejaVuSans-20" transform="translate(605.664062 0)"/>
       <use xlink:href="#DejaVuSans-31" transform="translate(637.451172 0)"/>
       <use xlink:href="#DejaVuSans-50" transform="translate(701.074219 0)"/>
       <use xlink:href="#DejaVuSans-2b" transform="translate(761.376953 0)"/>
       <use xlink:href="#DejaVuSans-31" transform="translate(845.166016 0)"/>
       <use xlink:href="#DejaVuSans-43" transform="translate(908.789062 0)"/>
       <use xlink:href="#DejaVuSans-29" transform="translate(978.613281 0)"/>
      </g>
     </g>
    </g>
    <g id="xtick_2">
     <g id="line2d_2">
      <g>
       <use xlink:href="#me8126e63cf" x="292.361076" y="388.03325" style="stroke: #000000; stroke-width: 0.8"/>
      </g>
     </g>
     <g id="text_2">
      <!-- Backpressure -->
      <g transform="translate(262.003654 401.871844) scale(0.09 -0.09)">
       <defs>
        <path id="DejaVuSans-42" d="M 1259 2228 
L 1259 519 
L 2272 519 
Q 2781 519 3026 730 
Q 3272 941 3272 1375 
Q 3272 1813 3026 2020 
Q 2781 2228 2272 2228 
L 1259 2228 
z
M 1259 4147 
L 1259 2741 
L 2194 2741 
Q 2656 2741 2882 2914 
Q 3109 3088 3109 3444 
Q 3109 3797 2882 3972 
Q 2656 4147 2194 4147 
L 1259 4147 
z
M 628 4666 
L 2241 4666 
Q 2963 4666 3353 4366 
Q 3744 4066 3744 3513 
Q 3744 3084 3544 2831 
Q 3344 2578 2956 2516 
Q 3422 2416 3680 2098 
Q 3938 1781 3938 1306 
Q 3938 681 3513 340 
Q 3088 0 2303 0 
L 628 0 
L 628 4666 
z
" transform="scale(0.015625)"/>
        <path id="DejaVuSans-61" d="M 2194 1759 
Q 1497 1759 1228 1600 
Q 959 1441 959 1056 
Q 959 750 1161 570 
Q 1363 391 1709 391 
Q 2188 391 2477 730 
Q 2766 1069 2766 1631 
L 2766 1759 
L 2194 1759 
z
M 3341 1997 
L 3341 0 
L 2766 0 
L 2766 531 
Q 2569 213 2275 61 
Q 1981 -91 1556 -91 
Q 1019 -91 701 211 
Q 384 513 384 1019 
Q 384 1609 779 1909 
Q 1175 2209 1959 2209 
L 2766 2209 
L 2766 2266 
Q 2766 2663 2505 2880 
Q 2244 3097 1772 3097 
Q 1472 3097 1187 3025 
Q 903 2953 641 2809 
L 641 3341 
Q 956 3463 1253 3523 
Q 1550 3584 1831 3584 
Q 2591 3584 2966 3190 
Q 3341 2797 3341 1997 
z
" transform="scale(0.015625)"/>
        <path id="DejaVuSans-63" d="M 3122 3366 
L 3122 2828 
Q 2878 2963 2633 3030 
Q 2388 3097 2138 3097 
Q 1578 3097 1268 2742 
Q 959 2388 959 1747 
Q 959 1106 1268 751 
Q 1578 397 2138 397 
Q 2388 397 2633 464 
Q 2878 531 3122 666 
L 3122 134 
Q 2881 22 2623 -34 
Q 2366 -91 2075 -91 
Q 1284 -91 818 406 
Q 353 903 353 1747 
Q 353 2603 823 3093 
Q 1294 3584 2113 3584 
Q 2378 3584 2631 3529 
Q 2884 3475 3122 3366 
z
" transform="scale(0.015625)"/>
        <path id="DejaVuSans-6b" d="M 581 4863 
L 1159 4863 
L 1159 1991 
L 2875 3500 
L 3609 3500 
L 1753 1863 
L 3688 0 
L 2938 0 
L 1159 1709 
L 1159 0 
L 581 0 
L 581 4863 
z
" transform="scale(0.015625)"/>
        <path id="DejaVuSans-70" d="M 1159 525 
L 1159 -1331 
L 581 -1331 
L 581 3500 
L 1159 3500 
L 1159 2969 
Q 1341 3281 1617 3432 
Q 1894 3584 2278 3584 
Q 2916 3584 3314 3078 
Q 3713 2572 3713 1747 
Q 3713 922 3314 415 
Q 2916 -91 2278 -91 
Q 1894 -91 1617 61 
Q 1341 213 1159 525 
z
M 3116 1747 
Q 3116 2381 2855 2742 
Q 2594 3103 2138 3103 
Q 1681 3103 1420 2742 
Q 1159 2381 1159 1747 
Q 1159 1113 1420 752 
Q 1681 391 2138 391 
Q 2594 391 2855 752 
Q 3116 1113 3116 1747 
z
" transform="scale(0.015625)"/>
        <path id="DejaVuSans-73" d="M 2834 3397 
L 2834 2853 
Q 2591 2978 2328 3040 
Q 2066 3103 1784 3103 
Q 1356 3103 1142 2972 
Q 928 2841 928 2578 
Q 928 2378 1081 2264 
Q 1234 2150 1697 2047 
L 1894 2003 
Q 2506 1872 2764 1633 
Q 3022 1394 3022 966 
Q 3022 478 2636 193 
Q 2250 -91 1575 -91 
Q 1294 -91 989 -36 
Q 684 19 347 128 
L 347 722 
Q 666 556 975 473 
Q 1284 391 1588 391 
Q 1994 391 2212 530 
Q 2431 669 2431 922 
Q 2431 1156 2273 1281 
Q 2116 1406 1581 1522 
L 1381 1569 
Q 847 1681 609 1914 
Q 372 2147 372 2553 
Q 372 3047 722 3315 
Q 1072 3584 1716 3584 
Q 2034 3584 2315 3537 
Q 2597 3491 2834 3397 
z
" transform="scale(0.015625)"/>
       </defs>
       <use xlink:href="#DejaVuSans-42"/>
       <use xlink:href="#DejaVuSans-61" transform="translate(68.603516 0)"/>
       <use xlink:href="#DejaVuSans-63" transform="translate(129.882812 0)"/>
       <use xlink:href="#DejaVuSans-6b" transform="translate(184.863281 0)"/>
       <use xlink:href="#DejaVuSans-70" transform="translate(242.773438 0)"/>
       <use xlink:href="#DejaVuSans-72" transform="translate(306.25 0)"/>
       <use xlink:href="#DejaVuSans-65" transform="translate(345.113281 0)"/>
       <use xlink:href="#DejaVuSans-73" transform="translate(406.636719 0)"/>
       <use xlink:href="#DejaVuSans-73" transform="translate(458.736328 0)"/>
       <use xlink:href="#DejaVuSans-75" transform="translate(510.835938 0)"/>
       <use xlink:href="#DejaVuSans-72" transform="translate(574.214844 0)"/>
       <use xlink:href="#DejaVuSans-65" transform="translate(613.078125 0)"/>
      </g>
      <!-- (cap=10, 1P+1C) -->
      <g transform="translate(253.050763 411.949875) scale(0.09 -0.09)">
       <defs>
        <path id="DejaVuSans-3d" d="M 678 2906 
L 4684 2906 
L 4684 2381 
L 678 2381 
L 678 2906 
z
M 678 1631 
L 4684 1631 
L 4684 1100 
L 678 1100 
L 678 1631 
z
" transform="scale(0.015625)"/>
        <path id="DejaVuSans-30" d="M 2034 4250 
Q 1547 4250 1301 3770 
Q 1056 3291 1056 2328 
Q 1056 1369 1301 889 
Q 1547 409 2034 409 
Q 2525 409 2770 889 
Q 3016 1369 3016 2328 
Q 3016 3291 2770 3770 
Q 2525 4250 2034 4250 
z
M 2034 4750 
Q 2819 4750 3233 4129 
Q 3647 3509 3647 2328 
Q 3647 1150 3233 529 
Q 2819 -91 2034 -91 
Q 1250 -91 836 529 
Q 422 1150 422 2328 
Q 422 3509 836 4129 
Q 1250 4750 2034 4750 
z
" transform="scale(0.015625)"/>
        <path id="DejaVuSans-2c" d="M 750 794 
L 1409 794 
L 1409 256 
L 897 -744 
L 494 -744 
L 750 256 
L 750 794 
z
" transform="scale(0.015625)"/>
       </defs>
       <use xlink:href="#DejaVuSans-28"/>
       <use xlink:href="#DejaVuSans-63" transform="translate(39.013672 0)"/>
       <use xlink:href="#DejaVuSans-61" transform="translate(93.994141 0)"/>
       <use xlink:href="#DejaVuSans-70" transform="translate(155.273438 0)"/>
       <use xlink:href="#DejaVuSans-3d" transform="translate(218.75 0)"/>
       <use xlink:href="#DejaVuSans-31" transform="translate(302.539062 0)"/>
       <use xlink:href="#DejaVuSans-30" transform="translate(366.162109 0)"/>
       <use xlink:href="#DejaVuSans-2c" transform="translate(429.785156 0)"/>
       <use xlink:href="#DejaVuSans-20" transform="translate(461.572266 0)"/>
       <use xlink:href="#DejaVuSans-31" transform="translate(493.359375 0)"/>
       <use xlink:href="#DejaVuSans-50" transform="translate(556.982422 0)"/>
       <use xlink:href="#DejaVuSans-2b" transform="translate(617.285156 0)"/>
       <use xlink:href="#DejaVuSans-31" transform="translate(701.074219 0)"/>
       <use xlink:href="#DejaVuSans-43" transform="translate(764.697266 0)"/>
       <use xlink:href="#DejaVuSans-29" transform="translate(834.521484 0)"/>
      </g>
     </g>
    </g>
    <g id="xtick_3">
     <g id="line2d_3">
      <g>
       <use xlink:href="#me8126e63cf" x="453.466097" y="388.03325" style="stroke: #000000; stroke-width: 0.8"/>
      </g>
     </g>
     <g id="text_3">
      <!-- Many-workers -->
      <g transform="translate(422.076488 401.871844) scale(0.09 -0.09)">
       <defs>
        <path id="DejaVuSans-4d" d="M 628 4666 
L 1569 4666 
L 2759 1491 
L 3956 4666 
L 4897 4666 
L 4897 0 
L 4281 0 
L 4281 4097 
L 3078 897 
L 2444 897 
L 1241 4097 
L 1241 0 
L 628 0 
L 628 4666 
z
" transform="scale(0.015625)"/>
        <path id="DejaVuSans-79" d="M 2059 -325 
Q 1816 -950 1584 -1140 
Q 1353 -1331 966 -1331 
L 506 -1331 
L 506 -850 
L 844 -850 
Q 1081 -850 1212 -737 
Q 1344 -625 1503 -206 
L 1606 56 
L 191 3500 
L 800 3500 
L 1894 763 
L 2988 3500 
L 3597 3500 
L 2059 -325 
z
" transform="scale(0.015625)"/>
       </defs>
       <use xlink:href="#DejaVuSans-4d"/>
       <use xlink:href="#DejaVuSans-61" transform="translate(86.279297 0)"/>
       <use xlink:href="#DejaVuSans-6e" transform="translate(147.558594 0)"/>
       <use xlink:href="#DejaVuSans-79" transform="translate(210.9375 0)"/>
       <use xlink:href="#DejaVuSans-2d" transform="translate(268.367188 0)"/>
       <use xlink:href="#DejaVuSans-77" transform="translate(304.451172 0)"/>
       <use xlink:href="#DejaVuSans-6f" transform="translate(386.238281 0)"/>
       <use xlink:href="#DejaVuSans-72" transform="translate(447.419922 0)"/>
       <use xlink:href="#DejaVuSans-6b" transform="translate(488.533203 0)"/>
       <use xlink:href="#DejaVuSans-65" transform="translate(542.818359 0)"/>
       <use xlink:href="#DejaVuSans-72" transform="translate(604.341797 0)"/>
       <use xlink:href="#DejaVuSans-73" transform="translate(645.455078 0)"/>
      </g>
      <!-- (100P+100C) -->
      <g transform="translate(423.149456 411.949875) scale(0.09 -0.09)">
       <use xlink:href="#DejaVuSans-28"/>
       <use xlink:href="#DejaVuSans-31" transform="translate(39.013672 0)"/>
       <use xlink:href="#DejaVuSans-30" transform="translate(102.636719 0)"/>
       <use xlink:href="#DejaVuSans-30" transform="translate(166.259766 0)"/>
       <use xlink:href="#DejaVuSans-50" transform="translate(229.882812 0)"/>
       <use xlink:href="#DejaVuSans-2b" transform="translate(290.185547 0)"/>
       <use xlink:href="#DejaVuSans-31" transform="translate(373.974609 0)"/>
       <use xlink:href="#DejaVuSans-30" transform="translate(437.597656 0)"/>
       <use xlink:href="#DejaVuSans-30" transform="translate(501.220703 0)"/>
       <use xlink:href="#DejaVuSans-43" transform="translate(564.84375 0)"/>
       <use xlink:href="#DejaVuSans-29" transform="translate(634.667969 0)"/>
      </g>
     </g>
    </g>
    <g id="xtick_4">
     <g id="line2d_4">
      <g>
       <use xlink:href="#me8126e63cf" x="614.571118" y="388.03325" style="stroke: #000000; stroke-width: 0.8"/>
      </g>
     </g>
     <g id="text_4">
      <!-- Blocked-getters -->
      <g transform="translate(579.196899 401.871844) scale(0.09 -0.09)">
       <defs>
        <path id="DejaVuSans-67" d="M 2906 1791 
Q 2906 2416 2648 2759 
Q 2391 3103 1925 3103 
Q 1463 3103 1205 2759 
Q 947 2416 947 1791 
Q 947 1169 1205 825 
Q 1463 481 1925 481 
Q 2391 481 2648 825 
Q 2906 1169 2906 1791 
z
M 3481 434 
Q 3481 -459 3084 -895 
Q 2688 -1331 1869 -1331 
Q 1566 -1331 1297 -1286 
Q 1028 -1241 775 -1147 
L 775 -588 
Q 1028 -725 1275 -790 
Q 1522 -856 1778 -856 
Q 2344 -856 2625 -561 
Q 2906 -266 2906 331 
L 2906 616 
Q 2728 306 2450 153 
Q 2172 0 1784 0 
Q 1141 0 747 490 
Q 353 981 353 1791 
Q 353 2603 747 3093 
Q 1141 3584 1784 3584 
Q 2172 3584 2450 3431 
Q 2728 3278 2906 2969 
L 2906 3500 
L 3481 3500 
L 3481 434 
z
" transform="scale(0.015625)"/>
        <path id="DejaVuSans-74" d="M 1172 4494 
L 1172 3500 
L 2356 3500 
L 2356 3053 
L 1172 3053 
L 1172 1153 
Q 1172 725 1289 603 
Q 1406 481 1766 481 
L 2356 481 
L 2356 0 
L 1766 0 
Q 1100 0 847 248 
Q 594 497 594 1153 
L 594 3053 
L 172 3053 
L 172 3500 
L 594 3500 
L 594 4494 
L 1172 4494 
z
" transform="scale(0.015625)"/>
       </defs>
       <use xlink:href="#DejaVuSans-42"/>
       <use xlink:href="#DejaVuSans-6c" transform="translate(68.603516 0)"/>
       <use xlink:href="#DejaVuSans-6f" transform="translate(96.386719 0)"/>
       <use xlink:href="#DejaVuSans-63" transform="translate(157.568359 0)"/>
       <use xlink:href="#DejaVuSans-6b" transform="translate(212.548828 0)"/>
       <use xlink:href="#DejaVuSans-65" transform="translate(266.833984 0)"/>
       <use xlink:href="#DejaVuSans-64" transform="translate(328.357422 0)"/>
       <use xlink:href="#DejaVuSans-2d" transform="translate(391.833984 0)"/>
       <use xlink:href="#DejaVuSans-67" transform="translate(427.917969 0)"/>
       <use xlink:href="#DejaVuSans-65" transform="translate(491.394531 0)"/>
       <use xlink:href="#DejaVuSans-74" transform="translate(552.917969 0)"/>
       <use xlink:href="#DejaVuSans-74" transform="translate(592.126953 0)"/>
       <use xlink:href="#DejaVuSans-65" transform="translate(631.335938 0)"/>
       <use xlink:href="#DejaVuSans-72" transform="translate(692.859375 0)"/>
       <use xlink:href="#DejaVuSans-73" transform="translate(733.972656 0)"/>
      </g>
      <!-- (100 getters, 1P) -->
      <g transform="translate(576.486352 411.949875) scale(0.09 -0.09)">
       <use xlink:href="#DejaVuSans-28"/>
       <use xlink:href="#DejaVuSans-31" transform="translate(39.013672 0)"/>
       <use xlink:href="#DejaVuSans-30" transform="translate(102.636719 0)"/>
       <use xlink:href="#DejaVuSans-30" transform="translate(166.259766 0)"/>
       <use xlink:href="#DejaVuSans-20" transform="translate(229.882812 0)"/>
       <use xlink:href="#DejaVuSans-67" transform="translate(261.669922 0)"/>
       <use xlink:href="#DejaVuSans-65" transform="translate(325.146484 0)"/>
       <use xlink:href="#DejaVuSans-74" transform="translate(386.669922 0)"/>
       <use xlink:href="#DejaVuSans-74" transform="translate(425.878906 0)"/>
       <use xlink:href="#DejaVuSans-65" transform="translate(465.087891 0)"/>
       <use xlink:href="#DejaVuSans-72" transform="translate(526.611328 0)"/>
       <use xlink:href="#DejaVuSans-73" transform="translate(567.724609 0)"/>
       <use xlink:href="#DejaVuSans-2c" transform="translate(619.824219 0)"/>
       <use xlink:href="#DejaVuSans-20" transform="translate(651.611328 0)"/>
       <use xlink:href="#DejaVuSans-31" transform="translate(683.398438 0)"/>
       <use xlink:href="#DejaVuSans-50" transform="translate(747.021484 0)"/>
       <use xlink:href="#DejaVuSans-29" transform="translate(807.324219 0)"/>
      </g>
     </g>
    </g>
    <g id="xtick_5">
     <g id="line2d_5">
      <g>
       <use xlink:href="#me8126e63cf" x="775.676139" y="388.03325" style="stroke: #000000; stroke-width: 0.8"/>
      </g>
     </g>
     <g id="text_5">
      <!-- Cross-notify -->
      <g transform="translate(748.931373 401.871844) scale(0.09 -0.09)">
       <defs>
        <path id="DejaVuSans-69" d="M 603 3500 
L 1178 3500 
L 1178 0 
L 603 0 
L 603 3500 
z
M 603 4863 
L 1178 4863 
L 1178 4134 
L 603 4134 
L 603 4863 
z
" transform="scale(0.015625)"/>
       </defs>
       <use xlink:href="#DejaVuSans-43"/>
       <use xlink:href="#DejaVuSans-72" transform="translate(69.824219 0)"/>
       <use xlink:href="#DejaVuSans-6f" transform="translate(108.6875 0)"/>
       <use xlink:href="#DejaVuSans-73" transform="translate(169.869141 0)"/>
       <use xlink:href="#DejaVuSans-73" transform="translate(221.96875 0)"/>
       <use xlink:href="#DejaVuSans-2d" transform="translate(274.068359 0)"/>
       <use xlink:href="#DejaVuSans-6e" transform="translate(310.152344 0)"/>
       <use xlink:href="#DejaVuSans-6f" transform="translate(373.53125 0)"/>
       <use xlink:href="#DejaVuSans-74" transform="translate(434.712891 0)"/>
       <use xlink:href="#DejaVuSans-69" transform="translate(473.921875 0)"/>
       <use xlink:href="#DejaVuSans-66" transform="translate(501.705078 0)"/>
       <use xlink:href="#DejaVuSans-79" transform="translate(535.160156 0)"/>
      </g>
      <!-- (100P+100C, cap=1) -->
      <g transform="translate(727.776452 411.949875) scale(0.09 -0.09)">
       <use xlink:href="#DejaVuSans-28"/>
       <use xlink:href="#DejaVuSans-31" transform="translate(39.013672 0)"/>
       <use xlink:href="#DejaVuSans-30" transform="translate(102.636719 0)"/>
       <use xlink:href="#DejaVuSans-30" transform="translate(166.259766 0)"/>
       <use xlink:href="#DejaVuSans-50" transform="translate(229.882812 0)"/>
       <use xlink:href="#DejaVuSans-2b" transform="translate(290.185547 0)"/>
       <use xlink:href="#DejaVuSans-31" transform="translate(373.974609 0)"/>
       <use xlink:href="#DejaVuSans-30" transform="translate(437.597656 0)"/>
       <use xlink:href="#DejaVuSans-30" transform="translate(501.220703 0)"/>
       <use xlink:href="#DejaVuSans-43" transform="translate(564.84375 0)"/>
       <use xlink:href="#DejaVuSans-2c" transform="translate(634.667969 0)"/>
       <use xlink:href="#DejaVuSans-20" transform="translate(666.455078 0)"/>
       <use xlink:href="#DejaVuSans-63" transform="translate(698.242188 0)"/>
       <use xlink:href="#DejaVuSans-61" transform="translate(753.222656 0)"/>
       <use xlink:href="#DejaVuSans-70" transform="translate(814.501953 0)"/>
       <use xlink:href="#DejaVuSans-3d" transform="translate(877.978516 0)"/>
       <use xlink:href="#DejaVuSans-31" transform="translate(961.767578 0)"/>
       <use xlink:href="#DejaVuSans-29" transform="translate(1025.390625 0)"/>
      </g>
     </g>
    </g>
   </g>
   <g id="matplotlib.axis_2">
    <g id="ytick_1">
     <g id="line2d_6">
      <path d="M 34.240625 388.03325 
L 872.691569 388.03325 
" clip-path="url(#p5a6bd72363)" style="fill: none; stroke-dasharray: 0.8,1.32; stroke-dashoffset: 0; stroke: #b0b0b0; stroke-opacity: 0.6; stroke-width: 0.8"/>
     </g>
     <g id="line2d_7">
      <defs>
       <path id="mda45a0f427" d="M 0 0 
L -3.5 0 
" style="stroke: #000000; stroke-width: 0.8"/>
      </defs>
      <g>
       <use xlink:href="#mda45a0f427" x="34.240625" y="388.03325" style="stroke: #000000; stroke-width: 0.8"/>
      </g>
     </g>
     <g id="text_6">
      <!-- 0 -->
      <g transform="translate(20.878125 391.832469) scale(0.1 -0.1)">
       <use xlink:href="#DejaVuSans-30"/>
      </g>
     </g>
    </g>
    <g id="ytick_2">
     <g id="line2d_8">
      <path d="M 34.240625 338.285927 
L 872.691569 338.285927 
" clip-path="url(#p5a6bd72363)" style="fill: none; stroke-dasharray: 0.8,1.32; stroke-dashoffset: 0; stroke: #b0b0b0; stroke-opacity: 0.6; stroke-width: 0.8"/>
     </g>
     <g id="line2d_9">
      <g>
       <use xlink:href="#mda45a0f427" x="34.240625" y="338.285927" style="stroke: #000000; stroke-width: 0.8"/>
      </g>
     </g>
     <g id="text_7">
      <!-- 1 -->
      <g transform="translate(20.878125 342.085146) scale(0.1 -0.1)">
       <use xlink:href="#DejaVuSans-31"/>
      </g>
     </g>
    </g>
    <g id="ytick_3">
     <g id="line2d_10">
      <path d="M 34.240625 288.538605 
L 872.691569 288.538605 
" clip-path="url(#p5a6bd72363)" style="fill: none; stroke-dasharray: 0.8,1.32; stroke-dashoffset: 0; stroke: #b0b0b0; stroke-opacity: 0.6; stroke-width: 0.8"/>
     </g>
     <g id="line2d_11">
      <g>
       <use xlink:href="#mda45a0f427" x="34.240625" y="288.538605" style="stroke: #000000; stroke-width: 0.8"/>
      </g>
     </g>
     <g id="text_8">
      <!-- 2 -->
      <g transform="translate(20.878125 292.337824) scale(0.1 -0.1)">
       <defs>
        <path id="DejaVuSans-32" d="M 1228 531 
L 3431 531 
L 3431 0 
L 469 0 
L 469 531 
Q 828 903 1448 1529 
Q 2069 2156 2228 2338 
Q 2531 2678 2651 2914 
Q 2772 3150 2772 3378 
Q 2772 3750 2511 3984 
Q 2250 4219 1831 4219 
Q 1534 4219 1204 4116 
Q 875 4013 500 3803 
L 500 4441 
Q 881 4594 1212 4672 
Q 1544 4750 1819 4750 
Q 2544 4750 2975 4387 
Q 3406 4025 3406 3419 
Q 3406 3131 3298 2873 
Q 3191 2616 2906 2266 
Q 2828 2175 2409 1742 
Q 1991 1309 1228 531 
z
" transform="scale(0.015625)"/>
       </defs>
       <use xlink:href="#DejaVuSans-32"/>
      </g>
     </g>
    </g>
    <g id="ytick_4">
     <g id="line2d_12">
      <path d="M 34.240625 238.791282 
L 872.691569 238.791282 
" clip-path="url(#p5a6bd72363)" style="fill: none; stroke-dasharray: 0.8,1.32; stroke-dashoffset: 0; stroke: #b0b0b0; stroke-opacity: 0.6; stroke-width: 0.8"/>
     </g>
     <g id="line2d_13">
      <g>
       <use xlink:href="#mda45a0f427" x="34.240625" y="238.791282" style="stroke: #000000; stroke-width: 0.8"/>
      </g>
     </g>
     <g id="text_9">
      <!-- 3 -->
      <g transform="translate(20.878125 242.590501) scale(0.1 -0.1)">
       <defs>
        <path id="DejaVuSans-33" d="M 2597 2516 
Q 3050 2419 3304 2112 
Q 3559 1806 3559 1356 
Q 3559 666 3084 287 
Q 2609 -91 1734 -91 
Q 1441 -91 1130 -33 
Q 819 25 488 141 
L 488 750 
Q 750 597 1062 519 
Q 1375 441 1716 441 
Q 2309 441 2620 675 
Q 2931 909 2931 1356 
Q 2931 1769 2642 2001 
Q 2353 2234 1838 2234 
L 1294 2234 
L 1294 2753 
L 1863 2753 
Q 2328 2753 2575 2939 
Q 2822 3125 2822 3475 
Q 2822 3834 2567 4026 
Q 2313 4219 1838 4219 
Q 1578 4219 1281 4162 
Q 984 4106 628 3988 
L 628 4550 
Q 988 4650 1302 4700 
Q 1616 4750 1894 4750 
Q 2613 4750 3031 4423 
Q 3450 4097 3450 3541 
Q 3450 3153 3228 2886 
Q 3006 2619 2597 2516 
z
" transform="scale(0.015625)"/>
       </defs>
       <use xlink:href="#DejaVuSans-33"/>
      </g>
     </g>
    </g>
    <g id="ytick_5">
     <g id="line2d_14">
      <path d="M 34.240625 189.04396 
L 872.691569 189.04396 
" clip-path="url(#p5a6bd72363)" style="fill: none; stroke-dasharray: 0.8,1.32; stroke-dashoffset: 0; stroke: #b0b0b0; stroke-opacity: 0.6; stroke-width: 0.8"/>
     </g>
     <g id="line2d_15">
      <g>
       <use xlink:href="#mda45a0f427" x="34.240625" y="189.04396" style="stroke: #000000; stroke-width: 0.8"/>
      </g>
     </g>
     <g id="text_10">
      <!-- 4 -->
      <g transform="translate(20.878125 192.843178) scale(0.1 -0.1)">
       <defs>
        <path id="DejaVuSans-34" d="M 2419 4116 
L 825 1625 
L 2419 1625 
L 2419 4116 
z
M 2253 4666 
L 3047 4666 
L 3047 1625 
L 3713 1625 
L 3713 1100 
L 3047 1100 
L 3047 0 
L 2419 0 
L 2419 1100 
L 313 1100 
L 313 1709 
L 2253 4666 
z
" transform="scale(0.015625)"/>
       </defs>
       <use xlink:href="#DejaVuSans-34"/>
      </g>
     </g>
    </g>
    <g id="ytick_6">
     <g id="line2d_16">
      <path d="M 34.240625 139.296637 
L 872.691569 139.296637 
" clip-path="url(#p5a6bd72363)" style="fill: none; stroke-dasharray: 0.8,1.32; stroke-dashoffset: 0; stroke: #b0b0b0; stroke-opacity: 0.6; stroke-width: 0.8"/>
     </g>
     <g id="line2d_17">
      <g>
       <use xlink:href="#mda45a0f427" x="34.240625" y="139.296637" style="stroke: #000000; stroke-width: 0.8"/>
      </g>
     </g>
     <g id="text_11">
      <!-- 5 -->
      <g transform="translate(20.878125 143.095856) scale(0.1 -0.1)">
       <defs>
        <path id="DejaVuSans-35" d="M 691 4666 
L 3169 4666 
L 3169 4134 
L 1269 4134 
L 1269 2991 
Q 1406 3038 1543 3061 
Q 1681 3084 1819 3084 
Q 2600 3084 3056 2656 
Q 3513 2228 3513 1497 
Q 3513 744 3044 326 
Q 2575 -91 1722 -91 
Q 1428 -91 1123 -41 
Q 819 9 494 109 
L 494 744 
Q 775 591 1075 516 
Q 1375 441 1709 441 
Q 2250 441 2565 725 
Q 2881 1009 2881 1497 
Q 2881 1984 2565 2268 
Q 2250 2553 1709 2553 
Q 1456 2553 1204 2497 
Q 953 2441 691 2322 
L 691 4666 
z
" transform="scale(0.015625)"/>
       </defs>
       <use xlink:href="#DejaVuSans-35"/>
      </g>
     </g>
    </g>
    <g id="ytick_7">
     <g id="line2d_18">
      <path d="M 34.240625 89.549314 
L 872.691569 89.549314 
" clip-path="url(#p5a6bd72363)" style="fill: none; stroke-dasharray: 0.8,1.32; stroke-dashoffset: 0; stroke: #b0b0b0; stroke-opacity: 0.6; stroke-width: 0.8"/>
     </g>
     <g id="line2d_19">
      <g>
       <use xlink:href="#mda45a0f427" x="34.240625" y="89.549314" style="stroke: #000000; stroke-width: 0.8"/>
      </g>
     </g>
     <g id="text_12">
      <!-- 6 -->
      <g transform="translate(20.878125 93.348533) scale(0.1 -0.1)">
       <defs>
        <path id="DejaVuSans-36" d="M 2113 2584 
Q 1688 2584 1439 2293 
Q 1191 2003 1191 1497 
Q 1191 994 1439 701 
Q 1688 409 2113 409 
Q 2538 409 2786 701 
Q 3034 994 3034 1497 
Q 3034 2003 2786 2293 
Q 2538 2584 2113 2584 
z
M 3366 4563 
L 3366 3988 
Q 3128 4100 2886 4159 
Q 2644 4219 2406 4219 
Q 1781 4219 1451 3797 
Q 1122 3375 1075 2522 
Q 1259 2794 1537 2939 
Q 1816 3084 2150 3084 
Q 2853 3084 3261 2657 
Q 3669 2231 3669 1497 
Q 3669 778 3244 343 
Q 2819 -91 2113 -91 
Q 1303 -91 875 529 
Q 447 1150 447 2328 
Q 447 3434 972 4092 
Q 1497 4750 2381 4750 
Q 2619 4750 2861 4703 
Q 3103 4656 3366 4563 
z
" transform="scale(0.015625)"/>
       </defs>
       <use xlink:href="#DejaVuSans-36"/>
      </g>
     </g>
    </g>
    <g id="text_13">
     <!-- Relative throughput  (SimPy = 1.0×) -->
     <g transform="translate(14.798438 305.637344) rotate(-90) scale(0.1 -0.1)">
      <defs>
       <path id="DejaVuSans-52" d="M 2841 2188 
Q 3044 2119 3236 1894 
Q 3428 1669 3622 1275 
L 4263 0 
L 3584 0 
L 2988 1197 
Q 2756 1666 2539 1819 
Q 2322 1972 1947 1972 
L 1259 1972 
L 1259 0 
L 628 0 
L 628 4666 
L 2053 4666 
Q 2853 4666 3247 4331 
Q 3641 3997 3641 3322 
Q 3641 2881 3436 2590 
Q 3231 2300 2841 2188 
z
M 1259 4147 
L 1259 2491 
L 2053 2491 
Q 2509 2491 2742 2702 
Q 2975 2913 2975 3322 
Q 2975 3731 2742 3939 
Q 2509 4147 2053 4147 
L 1259 4147 
z
" transform="scale(0.015625)"/>
       <path id="DejaVuSans-76" d="M 191 3500 
L 800 3500 
L 1894 563 
L 2988 3500 
L 3597 3500 
L 2284 0 
L 1503 0 
L 191 3500 
z
" transform="scale(0.015625)"/>
       <path id="DejaVuSans-68" d="M 3513 2113 
L 3513 0 
L 2938 0 
L 2938 2094 
Q 2938 2591 2744 2837 
Q 2550 3084 2163 3084 
Q 1697 3084 1428 2787 
Q 1159 2491 1159 1978 
L 1159 0 
L 581 0 
L 581 4863 
L 1159 4863 
L 1159 2956 
Q 1366 3272 1645 3428 
Q 1925 3584 2291 3584 
Q 2894 3584 3203 3211 
Q 3513 2838 3513 2113 
z
" transform="scale(0.015625)"/>
       <path id="DejaVuSans-53" d="M 3425 4513 
L 3425 3897 
Q 3066 4069 2747 4153 
Q 2428 4238 2131 4238 
Q 1616 4238 1336 4038 
Q 1056 3838 1056 3469 
Q 1056 3159 1242 3001 
Q 1428 2844 1947 2747 
L 2328 2669 
Q 3034 2534 3370 2195 
Q 3706 1856 3706 1288 
Q 3706 609 3251 259 
Q 2797 -91 1919 -91 
Q 1588 -91 1214 -16 
Q 841 59 441 206 
L 441 856 
Q 825 641 1194 531 
Q 1563 422 1919 422 
Q 2459 422 2753 634 
Q 3047 847 3047 1241 
Q 3047 1584 2836 1778 
Q 2625 1972 2144 2069 
L 1759 2144 
Q 1053 2284 737 2584 
Q 422 2884 422 3419 
Q 422 4038 858 4394 
Q 1294 4750 2059 4750 
Q 2388 4750 2728 4690 
Q 3069 4631 3425 4513 
z
" transform="scale(0.015625)"/>
       <path id="DejaVuSans-6d" d="M 3328 2828 
Q 3544 3216 3844 3400 
Q 4144 3584 4550 3584 
Q 5097 3584 5394 3201 
Q 5691 2819 5691 2113 
L 5691 0 
L 5113 0 
L 5113 2094 
Q 5113 2597 4934 2840 
Q 4756 3084 4391 3084 
Q 3944 3084 3684 2787 
Q 3425 2491 3425 1978 
L 3425 0 
L 2847 0 
L 2847 2094 
Q 2847 2600 2669 2842 
Q 2491 3084 2119 3084 
Q 1678 3084 1418 2786 
Q 1159 2488 1159 1978 
L 1159 0 
L 581 0 
L 581 3500 
L 1159 3500 
L 1159 2956 
Q 1356 3278 1631 3431 
Q 1906 3584 2284 3584 
Q 2666 3584 2933 3390 
Q 3200 3197 3328 2828 
z
" transform="scale(0.015625)"/>
       <path id="DejaVuSans-2e" d="M 684 794 
L 1344 794 
L 1344 0 
L 684 0 
L 684 794 
z
" transform="scale(0.015625)"/>
       <path id="DejaVuSans-d7" d="M 4488 3438 
L 3059 2003 
L 4488 575 
L 4116 197 
L 2681 1631 
L 1247 197 
L 878 575 
L 2303 2003 
L 878 3438 
L 1247 3816 
L 2681 2381 
L 4116 3816 
L 4488 3438 
z
" transform="scale(0.015625)"/>
      </defs>
      <use xlink:href="#DejaVuSans-52"/>
      <use xlink:href="#DejaVuSans-65" transform="translate(64.982422 0)"/>
      <use xlink:href="#DejaVuSans-6c" transform="translate(126.505859 0)"/>
      <use xlink:href="#DejaVuSans-61" transform="translate(154.289062 0)"/>
      <use xlink:href="#DejaVuSans-74" transform="translate(215.568359 0)"/>
      <use xlink:href="#DejaVuSans-69" transform="translate(254.777344 0)"/>
      <use xlink:href="#DejaVuSans-76" transform="translate(282.560547 0)"/>
      <use xlink:href="#DejaVuSans-65" transform="translate(341.740234 0)"/>
      <use xlink:href="#DejaVuSans-20" transform="translate(403.263672 0)"/>
      <use xlink:href="#DejaVuSans-74" transform="translate(435.050781 0)"/>
      <use xlink:href="#DejaVuSans-68" transform="translate(474.259766 0)"/>
      <use xlink:href="#DejaVuSans-72" transform="translate(537.638672 0)"/>
      <use xlink:href="#DejaVuSans-6f" transform="translate(576.501953 0)"/>
      <use xlink:href="#DejaVuSans-75" transform="translate(637.683594 0)"/>
      <use xlink:href="#DejaVuSans-67" transform="translate(701.0625 0)"/>
      <use xlink:href="#DejaVuSans-68" transform="translate(764.539062 0)"/>
      <use xlink:href="#DejaVuSans-70" transform="translate(827.917969 0)"/>
      <use xlink:href="#DejaVuSans-75" transform="translate(891.394531 0)"/>
      <use xlink:href="#DejaVuSans-74" transform="translate(954.773438 0)"/>
      <use xlink:href="#DejaVuSans-20" transform="translate(993.982422 0)"/>
      <use xlink:href="#DejaVuSans-20" transform="translate(1025.769531 0)"/>
      <use xlink:href="#DejaVuSans-28" transform="translate(1057.556641 0)"/>
      <use xlink:href="#DejaVuSans-53" transform="translate(1096.570312 0)"/>
      <use xlink:href="#DejaVuSans-69" transform="translate(1160.046875 0)"/>
      <use xlink:href="#DejaVuSans-6d" transform="translate(1187.830078 0)"/>
      <use xlink:href="#DejaVuSans-50" transform="translate(1285.242188 0)"/>
      <use xlink:href="#DejaVuSans-79" transform="translate(1345.544922 0)"/>
      <use xlink:href="#DejaVuSans-20" transform="translate(1404.724609 0)"/>
      <use xlink:href="#DejaVuSans-3d" transform="translate(1436.511719 0)"/>
      <use xlink:href="#DejaVuSans-20" transform="translate(1520.300781 0)"/>
      <use xlink:href="#DejaVuSans-31" transform="translate(1552.087891 0)"/>
      <use xlink:href="#DejaVuSans-2e" transform="translate(1615.710938 0)"/>
      <use xlink:href="#DejaVuSans-30" transform="translate(1647.498047 0)"/>
      <use xlink:href="#DejaVuSans-d7" transform="translate(1711.121094 0)"/>
      <use xlink:href="#DejaVuSans-29" transform="translate(1794.910156 0)"/>
     </g>
    </g>
   </g>
   <g id="patch_3">
    <path d="M 34.240625 388.03325 
L 34.240625 39.84925 
" style="fill: none; stroke: #000000; stroke-width: 0.8; stroke-linejoin: miter; stroke-linecap: square"/>
   </g>
   <g id="patch_4">
    <path d="M 872.691569 388.03325 
L 872.691569 39.84925 
" style="fill: none; stroke: #000000; stroke-width: 0.8; stroke-linejoin: miter; stroke-linecap: square"/>
   </g>
   <g id="patch_5">
    <path d="M 34.240625 388.03325 
L 872.691569 388.03325 
" style="fill: none; stroke: #000000; stroke-width: 0.8; stroke-linejoin: miter; stroke-linecap: square"/>
   </g>
   <g id="patch_6">
    <path d="M 34.240625 39.84925 
L 872.691569 39.84925 
" style="fill: none; stroke: #000000; stroke-width: 0.8; stroke-linejoin: miter; stroke-linecap: square"/>
   </g>
   <g id="patch_7">
    <path d="M 72.352032 388.03325 
L 99.538504 388.03325 
L 99.538504 174.381806 
L 72.352032 174.381806 
z
" clip-path="url(#p5a6bd72363)" style="fill: #42a5f5"/>
   </g>
   <g id="patch_8">
    <path d="M 233.457053 388.03325 
L 260.643525 388.03325 
L 260.643525 366.337868 
L 233.457053 366.337868 
z
" clip-path="url(#p5a6bd72363)" style="fill: #42a5f5"/>
   </g>
   <g id="patch_9">
    <path d="M 394.562074 388.03325 
L 421.748546 388.03325 
L 421.748546 242.869381 
L 394.562074 242.869381 
z
" clip-path="url(#p5a6bd72363)" style="fill: #42a5f5"/>
   </g>
   <g id="patch_10">
    <path d="M 555.667095 388.03325 
L 582.853567 388.03325 
L 582.853567 376.339238 
L 555.667095 376.339238 
z
" clip-path="url(#p5a6bd72363)" style="fill: #42a5f5"/>
   </g>
   <g id="patch_11">
    <path d="M 716.772116 388.03325 
L 743.958588 388.03325 
L 743.958588 380.343755 
L 716.772116 380.343755 
z
" clip-path="url(#p5a6bd72363)" style="fill: #42a5f5"/>
   </g>
   <g id="text_14">
    <!-- 4.29× -->
    <g transform="translate(74.453276 171.827094) scale(0.075 -0.075)">
     <defs>
      <path id="DejaVuSans-39" d="M 703 97 
L 703 672 
Q 941 559 1184 500 
Q 1428 441 1663 441 
Q 2288 441 2617 861 
Q 2947 1281 2994 2138 
Q 2813 1869 2534 1725 
Q 2256 1581 1919 1581 
Q 1219 1581 811 2004 
Q 403 2428 403 3163 
Q 403 3881 828 4315 
Q 1253 4750 1959 4750 
Q 2769 4750 3195 4129 
Q 3622 3509 3622 2328 
Q 3622 1225 3098 567 
Q 2575 -91 1691 -91 
Q 1453 -91 1209 -44 
Q 966 3 703 97 
z
M 1959 2075 
Q 2384 2075 2632 2365 
Q 2881 2656 2881 3163 
Q 2881 3666 2632 3958 
Q 2384 4250 1959 4250 
Q 1534 4250 1286 3958 
Q 1038 3666 1038 3163 
Q 1038 2656 1286 2365 
Q 1534 2075 1959 2075 
z
" transform="scale(0.015625)"/>
     </defs>
     <use xlink:href="#DejaVuSans-34"/>
     <use xlink:href="#DejaVuSans-2e" transform="translate(63.623047 0)"/>
     <use xlink:href="#DejaVuSans-32" transform="translate(95.410156 0)"/>
     <use xlink:href="#DejaVuSans-39" transform="translate(159.033203 0)"/>
     <use xlink:href="#DejaVuSans-d7" transform="translate(222.65625 0)"/>
    </g>
   </g>
   <g id="text_15">
    <!-- 0.44× -->
    <g transform="translate(235.558297 363.783156) scale(0.075 -0.075)">
     <use xlink:href="#DejaVuSans-30"/>
     <use xlink:href="#DejaVuSans-2e" transform="translate(63.623047 0)"/>
     <use xlink:href="#DejaVuSans-34" transform="translate(95.410156 0)"/>
     <use xlink:href="#DejaVuSans-34" transform="translate(159.033203 0)"/>
     <use xlink:href="#DejaVuSans-d7" transform="translate(222.65625 0)"/>
    </g>
   </g>
   <g id="text_16">
    <!-- 2.92× -->
    <g transform="translate(396.663318 240.314669) scale(0.075 -0.075)">
     <use xlink:href="#DejaVuSans-32"/>
     <use xlink:href="#DejaVuSans-2e" transform="translate(63.623047 0)"/>
     <use xlink:href="#DejaVuSans-39" transform="translate(95.410156 0)"/>
     <use xlink:href="#DejaVuSans-32" transform="translate(159.033203 0)"/>
     <use xlink:href="#DejaVuSans-d7" transform="translate(222.65625 0)"/>
    </g>
   </g>
   <g id="text_17">
    <!-- 0.24× -->
    <g transform="translate(557.768339 373.784526) scale(0.075 -0.075)">
     <use xlink:href="#DejaVuSans-30"/>
     <use xlink:href="#DejaVuSans-2e" transform="translate(63.623047 0)"/>
     <use xlink:href="#DejaVuSans-32" transform="translate(95.410156 0)"/>
     <use xlink:href="#DejaVuSans-34" transform="translate(159.033203 0)"/>
     <use xlink:href="#DejaVuSans-d7" transform="translate(222.65625 0)"/>
    </g>
   </g>
   <g id="text_18">
    <!-- 0.15× -->
    <g transform="translate(718.87336 377.789043) scale(0.075 -0.075)">
     <use xlink:href="#DejaVuSans-30"/>
     <use xlink:href="#DejaVuSans-2e" transform="translate(63.623047 0)"/>
     <use xlink:href="#DejaVuSans-31" transform="translate(95.410156 0)"/>
     <use xlink:href="#DejaVuSans-35" transform="translate(159.033203 0)"/>
     <use xlink:href="#DejaVuSans-d7" transform="translate(222.65625 0)"/>
    </g>
   </g>
   <g id="patch_12">
    <path d="M 102.559223 388.03325 
L 129.745695 388.03325 
L 129.745695 108.845414 
L 102.559223 108.845414 
z
" clip-path="url(#p5a6bd72363)" style="fill: #1565c0"/>
   </g>
   <g id="patch_13">
    <path d="M 263.664244 388.03325 
L 290.850716 388.03325 
L 290.850716 226.141081 
L 263.664244 226.141081 
z
" clip-path="url(#p5a6bd72363)" style="fill: #1565c0"/>
   </g>
   <g id="patch_14">
    <path d="M 424.769265 388.03325 
L 451.955737 388.03325 
L 451.955737 56.42944 
L 424.769265 56.42944 
z
" clip-path="url(#p5a6bd72363)" style="fill: #1565c0"/>
   </g>
   <g id="patch_15">
    <path d="M 585.874286 388.03325 
L 613.060758 388.03325 
L 613.060758 336.037373 
L 585.874286 336.037373 
z
" clip-path="url(#p5a6bd72363)" style="fill: #1565c0"/>
   </g>
   <g id="patch_16">
    <path d="M 746.979307 388.03325 
L 774.165779 388.03325 
L 774.165779 333.713546 
L 746.979307 333.713546 
z
" clip-path="url(#p5a6bd72363)" style="fill: #1565c0"/>
   </g>
   <g id="text_19">
    <!-- 5.61× -->
    <g transform="translate(104.660467 106.290701) scale(0.075 -0.075)">
     <use xlink:href="#DejaVuSans-35"/>
     <use xlink:href="#DejaVuSans-2e" transform="translate(63.623047 0)"/>
     <use xlink:href="#DejaVuSans-36" transform="translate(95.410156 0)"/>
     <use xlink:href="#DejaVuSans-31" transform="translate(159.033203 0)"/>
     <use xlink:href="#DejaVuSans-d7" transform="translate(222.65625 0)"/>
    </g>
   </g>
   <g id="text_20">
    <!-- 3.25× -->
    <g transform="translate(265.765488 223.586369) scale(0.075 -0.075)">
     <use xlink:href="#DejaVuSans-33"/>
     <use xlink:href="#DejaVuSans-2e" transform="translate(63.623047 0)"/>
     <use xlink:href="#DejaVuSans-32" transform="translate(95.410156 0)"/>
     <use xlink:href="#DejaVuSans-35" transform="translate(159.033203 0)"/>
     <use xlink:href="#DejaVuSans-d7" transform="translate(222.65625 0)"/>
    </g>
   </g>
   <g id="text_21">
    <!-- 6.67× -->
    <g transform="translate(426.870509 53.874728) scale(0.075 -0.075)">
     <defs>
      <path id="DejaVuSans-37" d="M 525 4666 
L 3525 4666 
L 3525 4397 
L 1831 0 
L 1172 0 
L 2766 4134 
L 525 4134 
L 525 4666 
z
" transform="scale(0.015625)"/>
     </defs>
     <use xlink:href="#DejaVuSans-36"/>
     <use xlink:href="#DejaVuSans-2e" transform="translate(63.623047 0)"/>
     <use xlink:href="#DejaVuSans-36" transform="translate(95.410156 0)"/>
     <use xlink:href="#DejaVuSans-37" transform="translate(159.033203 0)"/>
     <use xlink:href="#DejaVuSans-d7" transform="translate(222.65625 0)"/>
    </g>
   </g>
   <g id="text_22">
    <!-- 1.05× -->
    <g transform="translate(587.97553 333.482661) scale(0.075 -0.075)">
     <use xlink:href="#DejaVuSans-31"/>
     <use xlink:href="#DejaVuSans-2e" transform="translate(63.623047 0)"/>
     <use xlink:href="#DejaVuSans-30" transform="translate(95.410156 0)"/>
     <use xlink:href="#DejaVuSans-35" transform="translate(159.033203 0)"/>
     <use xlink:href="#DejaVuSans-d7" transform="translate(222.65625 0)"/>
    </g>
   </g>
   <g id="text_23">
    <!-- 1.09× -->
    <g transform="translate(749.080551 331.158834) scale(0.075 -0.075)">
     <use xlink:href="#DejaVuSans-31"/>
     <use xlink:href="#DejaVuSans-2e" transform="translate(63.623047 0)"/>
     <use xlink:href="#DejaVuSans-30" transform="translate(95.410156 0)"/>
     <use xlink:href="#DejaVuSans-39" transform="translate(159.033203 0)"/>
     <use xlink:href="#DejaVuSans-d7" transform="translate(222.65625 0)"/>
    </g>
   </g>
   <g id="patch_17">
    <path d="M 132.766414 388.03325 
L 159.952887 388.03325 
L 159.952887 338.285927 
L 132.766414 338.285927 
z
" clip-path="url(#p5a6bd72363)" style="fill: #757575"/>
   </g>
   <g id="patch_18">
    <path d="M 293.871435 388.03325 
L 321.057908 388.03325 
L 321.057908 338.285927 
L 293.871435 338.285927 
z
" clip-path="url(#p5a6bd72363)" style="fill: #757575"/>
   </g>
   <g id="patch_19">
    <path d="M 454.976457 388.03325 
L 482.162929 388.03325 
L 482.162929 338.285927 
L 454.976457 338.285927 
z
" clip-path="url(#p5a6bd72363)" style="fill: #757575"/>
   </g>
   <g id="patch_20">
    <path d="M 616.081478 388.03325 
L 643.26795 388.03325 
L 643.26795 338.285927 
L 616.081478 338.285927 
z
" clip-path="url(#p5a6bd72363)" style="fill: #757575"/>
   </g>
   <g id="patch_21">
    <path d="M 777.186499 388.03325 
L 804.372971 388.03325 
L 804.372971 338.285927 
L 777.186499 338.285927 
z
" clip-path="url(#p5a6bd72363)" style="fill: #757575"/>
   </g>
   <g id="text_24">
    <!-- 1.00× -->
    <g transform="translate(134.867658 335.731215) scale(0.075 -0.075)">
     <use xlink:href="#DejaVuSans-31"/>
     <use xlink:href="#DejaVuSans-2e" transform="translate(63.623047 0)"/>
     <use xlink:href="#DejaVuSans-30" transform="translate(95.410156 0)"/>
     <use xlink:href="#DejaVuSans-30" transform="translate(159.033203 0)"/>
     <use xlink:href="#DejaVuSans-d7" transform="translate(222.65625 0)"/>
    </g>
   </g>
   <g id="text_25">
    <!-- 1.00× -->
    <g transform="translate(295.972679 335.731215) scale(0.075 -0.075)">
     <use xlink:href="#DejaVuSans-31"/>
     <use xlink:href="#DejaVuSans-2e" transform="translate(63.623047 0)"/>
     <use xlink:href="#DejaVuSans-30" transform="translate(95.410156 0)"/>
     <use xlink:href="#DejaVuSans-30" transform="translate(159.033203 0)"/>
     <use xlink:href="#DejaVuSans-d7" transform="translate(222.65625 0)"/>
    </g>
   </g>
   <g id="text_26">
    <!-- 1.00× -->
    <g transform="translate(457.0777 335.731215) scale(0.075 -0.075)">
     <use xlink:href="#DejaVuSans-31"/>
     <use xlink:href="#DejaVuSans-2e" transform="translate(63.623047 0)"/>
     <use xlink:href="#DejaVuSans-30" transform="translate(95.410156 0)"/>
     <use xlink:href="#DejaVuSans-30" transform="translate(159.033203 0)"/>
     <use xlink:href="#DejaVuSans-d7" transform="translate(222.65625 0)"/>
    </g>
   </g>
   <g id="text_27">
    <!-- 1.00× -->
    <g transform="translate(618.182722 335.731215) scale(0.075 -0.075)">
     <use xlink:href="#DejaVuSans-31"/>
     <use xlink:href="#DejaVuSans-2e" transform="translate(63.623047 0)"/>
     <use xlink:href="#DejaVuSans-30" transform="translate(95.410156 0)"/>
     <use xlink:href="#DejaVuSans-30" transform="translate(159.033203 0)"/>
     <use xlink:href="#DejaVuSans-d7" transform="translate(222.65625 0)"/>
    </g>
   </g>
   <g id="text_28">
    <!-- 1.00× -->
    <g transform="translate(779.287743 335.731215) scale(0.075 -0.075)">
     <use xlink:href="#DejaVuSans-31"/>
     <use xlink:href="#DejaVuSans-2e" transform="translate(63.623047 0)"/>
     <use xlink:href="#DejaVuSans-30" transform="translate(95.410156 0)"/>
     <use xlink:href="#DejaVuSans-30" transform="translate(159.033203 0)"/>
     <use xlink:href="#DejaVuSans-d7" transform="translate(222.65625 0)"/>
    </g>
   </g>
   <g id="patch_22">
    <path d="M 162.973606 388.03325 
L 190.160078 388.03325 
L 190.160078 383.795067 
L 162.973606 383.795067 
z
" clip-path="url(#p5a6bd72363)" style="fill: #ef9a9a"/>
   </g>
   <g id="patch_23">
    <path d="M 324.078627 388.03325 
L 351.265099 388.03325 
L 351.265099 385.156073 
L 324.078627 385.156073 
z
" clip-path="url(#p5a6bd72363)" style="fill: #ef9a9a"/>
   </g>
   <g id="patch_24">
    <path d="M 485.183648 388.03325 
L 512.37012 388.03325 
L 512.37012 384.351742 
L 485.183648 384.351742 
z
" clip-path="url(#p5a6bd72363)" style="fill: #ef9a9a"/>
   </g>
   <g id="patch_25">
    <path d="M 646.288669 388.03325 
L 673.475141 388.03325 
L 673.475141 385.29761 
L 646.288669 385.29761 
z
" clip-path="url(#p5a6bd72363)" style="fill: #ef9a9a"/>
   </g>
   <g id="patch_26">
    <path d="M 807.39369 388.03325 
L 834.580162 388.03325 
L 834.580162 385.516906 
L 807.39369 385.516906 
z
" clip-path="url(#p5a6bd72363)" style="fill: #ef9a9a"/>
   </g>
   <g id="text_29">
    <!-- 0.09× -->
    <g transform="translate(165.07485 381.240355) scale(0.075 -0.075)">
     <use xlink:href="#DejaVuSans-30"/>
     <use xlink:href="#DejaVuSans-2e" transform="translate(63.623047 0)"/>
     <use xlink:href="#DejaVuSans-30" transform="translate(95.410156 0)"/>
     <use xlink:href="#DejaVuSans-39" transform="translate(159.033203 0)"/>
     <use xlink:href="#DejaVuSans-d7" transform="translate(222.65625 0)"/>
    </g>
   </g>
   <g id="text_30">
    <!-- 0.06× -->
    <g transform="translate(326.179871 382.601361) scale(0.075 -0.075)">
     <use xlink:href="#DejaVuSans-30"/>
     <use xlink:href="#DejaVuSans-2e" transform="translate(63.623047 0)"/>
     <use xlink:href="#DejaVuSans-30" transform="translate(95.410156 0)"/>
     <use xlink:href="#DejaVuSans-36" transform="translate(159.033203 0)"/>
     <use xlink:href="#DejaVuSans-d7" transform="translate(222.65625 0)"/>
    </g>
   </g>
   <g id="text_31">
    <!-- 0.07× -->
    <g transform="translate(487.284892 381.79703) scale(0.075 -0.075)">
     <use xlink:href="#DejaVuSans-30"/>
     <use xlink:href="#DejaVuSans-2e" transform="translate(63.623047 0)"/>
     <use xlink:href="#DejaVuSans-30" transform="translate(95.410156 0)"/>
     <use xlink:href="#DejaVuSans-37" transform="translate(159.033203 0)"/>
     <use xlink:href="#DejaVuSans-d7" transform="translate(222.65625 0)"/>
    </g>
   </g>
   <g id="text_32">
    <!-- 0.05× -->
    <g transform="translate(648.389913 382.742898) scale(0.075 -0.075)">
     <use xlink:href="#DejaVuSans-30"/>
     <use xlink:href="#DejaVuSans-2e" transform="translate(63.623047 0)"/>
     <use xlink:href="#DejaVuSans-30" transform="translate(95.410156 0)"/>
     <use xlink:href="#DejaVuSans-35" transform="translate(159.033203 0)"/>
     <use xlink:href="#DejaVuSans-d7" transform="translate(222.65625 0)"/>
    </g>
   </g>
   <g id="text_33">
    <!-- 0.05× -->
    <g transform="translate(809.494934 382.962194) scale(0.075 -0.075)">
     <use xlink:href="#DejaVuSans-30"/>
     <use xlink:href="#DejaVuSans-2e" transform="translate(63.623047 0)"/>
     <use xlink:href="#DejaVuSans-30" transform="translate(95.410156 0)"/>
     <use xlink:href="#DejaVuSans-35" transform="translate(159.033203 0)"/>
     <use xlink:href="#DejaVuSans-d7" transform="translate(222.65625 0)"/>
    </g>
   </g>
   <g id="text_34">
    <!-- SimPy baseline -->
    <g style="fill: #555555" transform="translate(868.022159 335.129758) scale(0.08 -0.08)">
     <use xlink:href="#DejaVuSans-53"/>
     <use xlink:href="#DejaVuSans-69" transform="translate(63.476562 0)"/>
     <use xlink:href="#DejaVuSans-6d" transform="translate(91.259766 0)"/>
     <use xlink:href="#DejaVuSans-50" transform="translate(188.671875 0)"/>
     <use xlink:href="#DejaVuSans-79" transform="translate(248.974609 0)"/>
     <use xlink:href="#DejaVuSans-20" transform="translate(308.154297 0)"/>
     <use xlink:href="#DejaVuSans-62" transform="translate(339.941406 0)"/>
     <use xlink:href="#DejaVuSans-61" transform="translate(403.417969 0)"/>
     <use xlink:href="#DejaVuSans-73" transform="translate(464.697266 0)"/>
     <use xlink:href="#DejaVuSans-65" transform="translate(516.796875 0)"/>
     <use xlink:href="#DejaVuSans-6c" transform="translate(578.320312 0)"/>
     <use xlink:href="#DejaVuSans-69" transform="translate(606.103516 0)"/>
     <use xlink:href="#DejaVuSans-6e" transform="translate(633.886719 0)"/>
     <use xlink:href="#DejaVuSans-65" transform="translate(697.265625 0)"/>
    </g>
   </g>
   <g id="text_35">
    <!-- Queue Throughput — relative to SimPy 4.1.1 Store -->
    <g transform="translate(281.842659 16.318125) scale(0.12 -0.12)">
     <defs>
      <path id="DejaVuSans-Bold-51" d="M 2847 -84 
L 2753 -84 
Q 1600 -84 959 553 
Q 319 1191 319 2328 
Q 319 3463 958 4106 
Q 1597 4750 2719 4750 
Q 3853 4750 4486 4112 
Q 5119 3475 5119 2328 
Q 5119 1541 4783 972 
Q 4447 403 3816 116 
L 4756 -934 
L 3609 -934 
L 2847 -84 
z
M 2719 3878 
Q 2169 3878 1866 3472 
Q 1563 3066 1563 2328 
Q 1563 1578 1859 1179 
Q 2156 781 2719 781 
Q 3272 781 3575 1187 
Q 3878 1594 3878 2328 
Q 3878 3066 3575 3472 
Q 3272 3878 2719 3878 
z
" transform="scale(0.015625)"/>
      <path id="DejaVuSans-Bold-75" d="M 500 1363 
L 500 3500 
L 1625 3500 
L 1625 3150 
Q 1625 2866 1622 2436 
Q 1619 2006 1619 1863 
Q 1619 1441 1641 1255 
Q 1663 1069 1716 984 
Q 1784 875 1895 815 
Q 2006 756 2150 756 
Q 2500 756 2700 1025 
Q 2900 1294 2900 1772 
L 2900 3500 
L 4019 3500 
L 4019 0 
L 2900 0 
L 2900 506 
Q 2647 200 2364 54 
Q 2081 -91 1741 -91 
Q 1134 -91 817 281 
Q 500 653 500 1363 
z
" transform="scale(0.015625)"/>
      <path id="DejaVuSans-Bold-65" d="M 4031 1759 
L 4031 1441 
L 1416 1441 
Q 1456 1047 1700 850 
Q 1944 653 2381 653 
Q 2734 653 3104 758 
Q 3475 863 3866 1075 
L 3866 213 
Q 3469 63 3072 -14 
Q 2675 -91 2278 -91 
Q 1328 -91 801 392 
Q 275 875 275 1747 
Q 275 2603 792 3093 
Q 1309 3584 2216 3584 
Q 3041 3584 3536 3087 
Q 4031 2591 4031 1759 
z
M 2881 2131 
Q 2881 2450 2695 2645 
Q 2509 2841 2209 2841 
Q 1884 2841 1681 2658 
Q 1478 2475 1428 2131 
L 2881 2131 
z
" transform="scale(0.015625)"/>
      <path id="DejaVuSans-Bold-20" transform="scale(0.015625)"/>
      <path id="DejaVuSans-Bold-54" d="M 31 4666 
L 4331 4666 
L 4331 3756 
L 2784 3756 
L 2784 0 
L 1581 0 
L 1581 3756 
L 31 3756 
L 31 4666 
z
" transform="scale(0.015625)"/>
      <path id="DejaVuSans-Bold-68" d="M 4056 2131 
L 4056 0 
L 2931 0 
L 2931 347 
L 2931 1625 
Q 2931 2084 2911 2256 
Q 2891 2428 2841 2509 
Q 2775 2619 2662 2680 
Q 2550 2741 2406 2741 
Q 2056 2741 1856 2470 
Q 1656 2200 1656 1722 
L 1656 0 
L 538 0 
L 538 4863 
L 1656 4863 
L 1656 2988 
Q 1909 3294 2193 3439 
Q 2478 3584 2822 3584 
Q 3428 3584 3742 3212 
Q 4056 2841 4056 2131 
z
" transform="scale(0.015625)"/>
      <path id="DejaVuSans-Bold-72" d="M 3138 2547 
Q 2991 2616 2845 2648 
Q 2700 2681 2553 2681 
Q 2122 2681 1889 2404 
Q 1656 2128 1656 1613 
L 1656 0 
L 538 0 
L 538 3500 
L 1656 3500 
L 1656 2925 
Q 1872 3269 2151 3426 
Q 2431 3584 2822 3584 
Q 2878 3584 2943 3579 
Q 3009 3575 3134 3559 
L 3138 2547 
z
" transform="scale(0.015625)"/>
      <path id="DejaVuSans-Bold-6f" d="M 2203 2784 
Q 1831 2784 1636 2517 
Q 1441 2250 1441 1747 
Q 1441 1244 1636 976 
Q 1831 709 2203 709 
Q 2569 709 2762 976 
Q 2956 1244 2956 1747 
Q 2956 2250 2762 2517 
Q 2569 2784 2203 2784 
z
M 2203 3584 
Q 3106 3584 3614 3096 
Q 4122 2609 4122 1747 
Q 4122 884 3614 396 
Q 3106 -91 2203 -91 
Q 1297 -91 786 396 
Q 275 884 275 1747 
Q 275 2609 786 3096 
Q 1297 3584 2203 3584 
z
" transform="scale(0.015625)"/>
      <path id="DejaVuSans-Bold-67" d="M 2919 594 
Q 2688 288 2409 144 
Q 2131 0 1766 0 
Q 1125 0 706 504 
Q 288 1009 288 1791 
Q 288 2575 706 3076 
Q 1125 3578 1766 3578 
Q 2131 3578 2409 3434 
Q 2688 3291 2919 2981 
L 2919 3500 
L 4044 3500 
L 4044 353 
Q 4044 -491 3511 -936 
Q 2978 -1381 1966 -1381 
Q 1638 -1381 1331 -1331 
Q 1025 -1281 716 -1178 
L 716 -306 
Q 1009 -475 1290 -558 
Q 1572 -641 1856 -641 
Q 2406 -641 2662 -400 
Q 2919 -159 2919 353 
L 2919 594 
z
M 2181 2772 
Q 1834 2772 1640 2515 
Q 1447 2259 1447 1791 
Q 1447 1309 1634 1061 
Q 1822 813 2181 813 
Q 2531 813 2725 1069 
Q 2919 1325 2919 1791 
Q 2919 2259 2725 2515 
Q 2531 2772 2181 2772 
z
" transform="scale(0.015625)"/>
      <path id="DejaVuSans-Bold-70" d="M 1656 506 
L 1656 -1331 
L 538 -1331 
L 538 3500 
L 1656 3500 
L 1656 2988 
Q 1888 3294 2169 3439 
Q 2450 3584 2816 3584 
Q 3463 3584 3878 3070 
Q 4294 2556 4294 1747 
Q 4294 938 3878 423 
Q 3463 -91 2816 -91 
Q 2450 -91 2169 54 
Q 1888 200 1656 506 
z
M 2400 2772 
Q 2041 2772 1848 2508 
Q 1656 2244 1656 1747 
Q 1656 1250 1848 986 
Q 2041 722 2400 722 
Q 2759 722 2948 984 
Q 3138 1247 3138 1747 
Q 3138 2247 2948 2509 
Q 2759 2772 2400 2772 
z
" transform="scale(0.015625)"/>
      <path id="DejaVuSans-Bold-74" d="M 1759 4494 
L 1759 3500 
L 2913 3500 
L 2913 2700 
L 1759 2700 
L 1759 1216 
Q 1759 972 1856 886 
Q 1953 800 2241 800 
L 2816 800 
L 2816 0 
L 1856 0 
Q 1194 0 917 276 
Q 641 553 641 1216 
L 641 2700 
L 84 2700 
L 84 3500 
L 641 3500 
L 641 4494 
L 1759 4494 
z
" transform="scale(0.015625)"/>
      <path id="DejaVuSans-Bold-2014" d="M 344 2156 
L 6056 2156 
L 6056 1350 
L 344 1350 
L 344 2156 
z
" transform="scale(0.015625)"/>
      <path id="DejaVuSans-Bold-6c" d="M 538 4863 
L 1656 4863 
L 1656 0 
L 538 0 
L 538 4863 
z
" transform="scale(0.015625)"/>
      <path id="DejaVuSans-Bold-61" d="M 2106 1575 
Q 1756 1575 1579 1456 
Q 1403 1338 1403 1106 
Q 1403 894 1545 773 
Q 1688 653 1941 653 
Q 2256 653 2472 879 
Q 2688 1106 2688 1447 
L 2688 1575 
L 2106 1575 
z
M 3816 1997 
L 3816 0 
L 2688 0 
L 2688 519 
Q 2463 200 2181 54 
Q 1900 -91 1497 -91 
Q 953 -91 614 226 
Q 275 544 275 1050 
Q 275 1666 698 1953 
Q 1122 2241 2028 2241 
L 2688 2241 
L 2688 2328 
Q 2688 2594 2478 2717 
Q 2269 2841 1825 2841 
Q 1466 2841 1156 2769 
Q 847 2697 581 2553 
L 581 3406 
Q 941 3494 1303 3539 
Q 1666 3584 2028 3584 
Q 2975 3584 3395 3211 
Q 3816 2838 3816 1997 
z
" transform="scale(0.015625)"/>
      <path id="DejaVuSans-Bold-69" d="M 538 3500 
L 1656 3500 
L 1656 0 
L 538 0 
L 538 3500 
z
M 538 4863 
L 1656 4863 
L 1656 3950 
L 538 3950 
L 538 4863 
z
" transform="scale(0.015625)"/>
      <path id="DejaVuSans-Bold-76" d="M 97 3500 
L 1216 3500 
L 2088 1081 
L 2956 3500 
L 4078 3500 
L 2700 0 
L 1472 0 
L 97 3500 
z
" transform="scale(0.015625)"/>
      <path id="DejaVuSans-Bold-53" d="M 3834 4519 
L 3834 3531 
Q 3450 3703 3084 3790 
Q 2719 3878 2394 3878 
Q 1963 3878 1756 3759 
Q 1550 3641 1550 3391 
Q 1550 3203 1689 3098 
Q 1828 2994 2194 2919 
L 2706 2816 
Q 3484 2659 3812 2340 
Q 4141 2022 4141 1434 
Q 4141 663 3683 286 
Q 3225 -91 2284 -91 
Q 1841 -91 1394 -6 
Q 947 78 500 244 
L 500 1259 
Q 947 1022 1364 901 
Q 1781 781 2169 781 
Q 2563 781 2772 912 
Q 2981 1044 2981 1288 
Q 2981 1506 2839 1625 
Q 2697 1744 2272 1838 
L 1806 1941 
Q 1106 2091 782 2419 
Q 459 2747 459 3303 
Q 459 4000 909 4375 
Q 1359 4750 2203 4750 
Q 2588 4750 2994 4692 
Q 3400 4634 3834 4519 
z
" transform="scale(0.015625)"/>
      <path id="DejaVuSans-Bold-6d" d="M 3781 2919 
Q 3994 3244 4286 3414 
Q 4578 3584 4928 3584 
Q 5531 3584 5847 3212 
Q 6163 2841 6163 2131 
L 6163 0 
L 5038 0 
L 5038 1825 
Q 5041 1866 5042 1909 
Q 5044 1953 5044 2034 
Q 5044 2406 4934 2573 
Q 4825 2741 4581 2741 
Q 4263 2741 4089 2478 
Q 3916 2216 3909 1719 
L 3909 0 
L 2784 0 
L 2784 1825 
Q 2784 2406 2684 2573 
Q 2584 2741 2328 2741 
Q 2006 2741 1831 2477 
Q 1656 2213 1656 1722 
L 1656 0 
L 531 0 
L 531 3500 
L 1656 3500 
L 1656 2988 
Q 1863 3284 2130 3434 
Q 2397 3584 2719 3584 
Q 3081 3584 3359 3409 
Q 3638 3234 3781 2919 
z
" transform="scale(0.015625)"/>
      <path id="DejaVuSans-Bold-50" d="M 588 4666 
L 2584 4666 
Q 3475 4666 3951 4270 
Q 4428 3875 4428 3144 
Q 4428 2409 3951 2014 
Q 3475 1619 2584 1619 
L 1791 1619 
L 1791 0 
L 588 0 
L 588 4666 
z
M 1791 3794 
L 1791 2491 
L 2456 2491 
Q 2806 2491 2997 2661 
Q 3188 2831 3188 3144 
Q 3188 3456 2997 3625 
Q 2806 3794 2456 3794 
L 1791 3794 
z
" transform="scale(0.015625)"/>
      <path id="DejaVuSans-Bold-79" d="M 78 3500 
L 1197 3500 
L 2138 1125 
L 2938 3500 
L 4056 3500 
L 2584 -331 
Q 2363 -916 2067 -1148 
Q 1772 -1381 1288 -1381 
L 641 -1381 
L 641 -647 
L 991 -647 
Q 1275 -647 1404 -556 
Q 1534 -466 1606 -231 
L 1638 -134 
L 78 3500 
z
" transform="scale(0.015625)"/>
      <path id="DejaVuSans-Bold-34" d="M 2356 3675 
L 1038 1722 
L 2356 1722 
L 2356 3675 
z
M 2156 4666 
L 3494 4666 
L 3494 1722 
L 4159 1722 
L 4159 850 
L 3494 850 
L 3494 0 
L 2356 0 
L 2356 850 
L 288 850 
L 288 1881 
L 2156 4666 
z
" transform="scale(0.015625)"/>
      <path id="DejaVuSans-Bold-2e" d="M 653 1209 
L 1778 1209 
L 1778 0 
L 653 0 
L 653 1209 
z
" transform="scale(0.015625)"/>
      <path id="DejaVuSans-Bold-31" d="M 750 831 
L 1813 831 
L 1813 3847 
L 722 3622 
L 722 4441 
L 1806 4666 
L 2950 4666 
L 2950 831 
L 4013 831 
L 4013 0 
L 750 0 
L 750 831 
z
" transform="scale(0.015625)"/>
     </defs>
     <use xlink:href="#DejaVuSans-Bold-51"/>
     <use xlink:href="#DejaVuSans-Bold-75" transform="translate(85.009766 0)"/>
     <use xlink:href="#DejaVuSans-Bold-65" transform="translate(156.201172 0)"/>
     <use xlink:href="#DejaVuSans-Bold-75" transform="translate(224.023438 0)"/>
     <use xlink:href="#DejaVuSans-Bold-65" transform="translate(295.214844 0)"/>
     <use xlink:href="#DejaVuSans-Bold-20" transform="translate(363.037109 0)"/>
     <use xlink:href="#DejaVuSans-Bold-54" transform="translate(397.851562 0)"/>
     <use xlink:href="#DejaVuSans-Bold-68" transform="translate(466.064453 0)"/>
     <use xlink:href="#DejaVuSans-Bold-72" transform="translate(537.255859 0)"/>
     <use xlink:href="#DejaVuSans-Bold-6f" transform="translate(586.572266 0)"/>
     <use xlink:href="#DejaVuSans-Bold-75" transform="translate(655.273438 0)"/>
     <use xlink:href="#DejaVuSans-Bold-67" transform="translate(726.464844 0)"/>
     <use xlink:href="#DejaVuSans-Bold-68" transform="translate(798.046875 0)"/>
     <use xlink:href="#DejaVuSans-Bold-70" transform="translate(869.238281 0)"/>
     <use xlink:href="#DejaVuSans-Bold-75" transform="translate(940.820312 0)"/>
     <use xlink:href="#DejaVuSans-Bold-74" transform="translate(1012.011719 0)"/>
     <use xlink:href="#DejaVuSans-Bold-20" transform="translate(1059.814453 0)"/>
     <use xlink:href="#DejaVuSans-Bold-2014" transform="translate(1094.628906 0)"/>
     <use xlink:href="#DejaVuSans-Bold-20" transform="translate(1194.628906 0)"/>
     <use xlink:href="#DejaVuSans-Bold-72" transform="translate(1229.443359 0)"/>
     <use xlink:href="#DejaVuSans-Bold-65" transform="translate(1278.759766 0)"/>
     <use xlink:href="#DejaVuSans-Bold-6c" transform="translate(1346.582031 0)"/>
     <use xlink:href="#DejaVuSans-Bold-61" transform="translate(1380.859375 0)"/>
     <use xlink:href="#DejaVuSans-Bold-74" transform="translate(1448.339844 0)"/>
     <use xlink:href="#DejaVuSans-Bold-69" transform="translate(1496.142578 0)"/>
     <use xlink:href="#DejaVuSans-Bold-76" transform="translate(1530.419922 0)"/>
     <use xlink:href="#DejaVuSans-Bold-65" transform="translate(1595.605469 0)"/>
     <use xlink:href="#DejaVuSans-Bold-20" transform="translate(1663.427734 0)"/>
     <use xlink:href="#DejaVuSans-Bold-74" transform="translate(1698.242188 0)"/>
     <use xlink:href="#DejaVuSans-Bold-6f" transform="translate(1746.044922 0)"/>
     <use xlink:href="#DejaVuSans-Bold-20" transform="translate(1814.746094 0)"/>
     <use xlink:href="#DejaVuSans-Bold-53" transform="translate(1849.560547 0)"/>
     <use xlink:href="#DejaVuSans-Bold-69" transform="translate(1921.582031 0)"/>
     <use xlink:href="#DejaVuSans-Bold-6d" transform="translate(1955.859375 0)"/>
     <use xlink:href="#DejaVuSans-Bold-50" transform="translate(2060.058594 0)"/>
     <use xlink:href="#DejaVuSans-Bold-79" transform="translate(2135.224609 0)"/>
     <use xlink:href="#DejaVuSans-Bold-20" transform="translate(2200.410156 0)"/>
     <use xlink:href="#DejaVuSans-Bold-34" transform="translate(2235.224609 0)"/>
     <use xlink:href="#DejaVuSans-Bold-2e" transform="translate(2304.804688 0)"/>
     <use xlink:href="#DejaVuSans-Bold-31" transform="translate(2342.792969 0)"/>
     <use xlink:href="#DejaVuSans-Bold-2e" transform="translate(2412.373047 0)"/>
     <use xlink:href="#DejaVuSans-Bold-31" transform="translate(2450.361328 0)"/>
     <use xlink:href="#DejaVuSans-Bold-20" transform="translate(2519.941406 0)"/>
     <use xlink:href="#DejaVuSans-Bold-53" transform="translate(2554.755859 0)"/>
     <use xlink:href="#DejaVuSans-Bold-74" transform="translate(2626.777344 0)"/>
     <use xlink:href="#DejaVuSans-Bold-6f" transform="translate(2674.580078 0)"/>
     <use xlink:href="#DejaVuSans-Bold-72" transform="translate(2743.28125 0)"/>
     <use xlink:href="#DejaVuSans-Bold-65" transform="translate(2792.597656 0)"/>
    </g>
    <!-- (N=10,000 items, 100 repeats) -->
    <g transform="translate(349.012659 29.84925) scale(0.12 -0.12)">
     <defs>
      <path id="DejaVuSans-Bold-28" d="M 2413 -844 
L 1484 -844 
Q 1006 -72 778 623 
Q 550 1319 550 2003 
Q 550 2688 779 3389 
Q 1009 4091 1484 4856 
L 2413 4856 
Q 2013 4116 1813 3408 
Q 1613 2700 1613 2009 
Q 1613 1319 1811 609 
Q 2009 -100 2413 -844 
z
" transform="scale(0.015625)"/>
      <path id="DejaVuSans-Bold-4e" d="M 588 4666 
L 1931 4666 
L 3628 1466 
L 3628 4666 
L 4769 4666 
L 4769 0 
L 3425 0 
L 1728 3200 
L 1728 0 
L 588 0 
L 588 4666 
z
" transform="scale(0.015625)"/>
      <path id="DejaVuSans-Bold-3d" d="M 678 3084 
L 4684 3084 
L 4684 2350 
L 678 2350 
L 678 3084 
z
M 678 1663 
L 4684 1663 
L 4684 922 
L 678 922 
L 678 1663 
z
" transform="scale(0.015625)"/>
      <path id="DejaVuSans-Bold-30" d="M 2944 2338 
Q 2944 3213 2780 3570 
Q 2616 3928 2228 3928 
Q 1841 3928 1675 3570 
Q 1509 3213 1509 2338 
Q 1509 1453 1675 1090 
Q 1841 728 2228 728 
Q 2613 728 2778 1090 
Q 2944 1453 2944 2338 
z
M 4147 2328 
Q 4147 1169 3647 539 
Q 3147 -91 2228 -91 
Q 1306 -91 806 539 
Q 306 1169 306 2328 
Q 306 3491 806 4120 
Q 1306 4750 2228 4750 
Q 3147 4750 3647 4120 
Q 4147 3491 4147 2328 
z
" transform="scale(0.015625)"/>
      <path id="DejaVuSans-Bold-2c" d="M 653 1209 
L 1778 1209 
L 1778 256 
L 1006 -909 
L 341 -909 
L 653 256 
L 653 1209 
z
" transform="scale(0.015625)"/>
      <path id="DejaVuSans-Bold-73" d="M 3272 3391 
L 3272 2541 
Q 2913 2691 2578 2766 
Q 2244 2841 1947 2841 
Q 1628 2841 1473 2761 
Q 1319 2681 1319 2516 
Q 1319 2381 1436 2309 
Q 1553 2238 1856 2203 
L 2053 2175 
Q 2913 2066 3209 1816 
Q 3506 1566 3506 1031 
Q 3506 472 3093 190 
Q 2681 -91 1863 -91 
Q 1516 -91 1145 -36 
Q 775 19 384 128 
L 384 978 
Q 719 816 1070 734 
Q 1422 653 1784 653 
Q 2113 653 2278 743 
Q 2444 834 2444 1013 
Q 2444 1163 2330 1236 
Q 2216 1309 1875 1350 
L 1678 1375 
Q 931 1469 631 1722 
Q 331 1975 331 2491 
Q 331 3047 712 3315 
Q 1094 3584 1881 3584 
Q 2191 3584 2531 3537 
Q 2872 3491 3272 3391 
z
" transform="scale(0.015625)"/>
      <path id="DejaVuSans-Bold-29" d="M 513 -844 
Q 913 -100 1113 609 
Q 1313 1319 1313 2009 
Q 1313 2700 1113 3408 
Q 913 4116 513 4856 
L 1441 4856 
Q 1916 4091 2145 3389 
Q 2375 2688 2375 2003 
Q 2375 1319 2147 623 
Q 1919 -72 1441 -844 
L 513 -844 
z
" transform="scale(0.015625)"/>
     </defs>
     <use xlink:href="#DejaVuSans-Bold-28"/>
     <use xlink:href="#DejaVuSans-Bold-4e" transform="translate(45.703125 0)"/>
     <use xlink:href="#DejaVuSans-Bold-3d" transform="translate(129.394531 0)"/>
     <use xlink:href="#DejaVuSans-Bold-31" transform="translate(213.183594 0)"/>
     <use xlink:href="#DejaVuSans-Bold-30" transform="translate(282.763672 0)"/>
     <use xlink:href="#DejaVuSans-Bold-2c" transform="translate(352.34375 0)"/>
     <use xlink:href="#DejaVuSans-Bold-30" transform="translate(390.332031 0)"/>
     <use xlink:href="#DejaVuSans-Bold-30" transform="translate(459.912109 0)"/>
     <use xlink:href="#DejaVuSans-Bold-30" transform="translate(529.492188 0)"/>
     <use xlink:href="#DejaVuSans-Bold-20" transform="translate(599.072266 0)"/>
     <use xlink:href="#DejaVuSans-Bold-69" transform="translate(633.886719 0)"/>
     <use xlink:href="#DejaVuSans-Bold-74" transform="translate(668.164062 0)"/>
     <use xlink:href="#DejaVuSans-Bold-65" transform="translate(715.966797 0)"/>
     <use xlink:href="#DejaVuSans-Bold-6d" transform="translate(783.789062 0)"/>
     <use xlink:href="#DejaVuSans-Bold-73" transform="translate(887.988281 0)"/>
     <use xlink:href="#DejaVuSans-Bold-2c" transform="translate(947.509766 0)"/>
     <use xlink:href="#DejaVuSans-Bold-20" transform="translate(985.498047 0)"/>
     <use xlink:href="#DejaVuSans-Bold-31" transform="translate(1020.3125 0)"/>
     <use xlink:href="#DejaVuSans-Bold-30" transform="translate(1089.892578 0)"/>
     <use xlink:href="#DejaVuSans-Bold-30" transform="translate(1159.472656 0)"/>
     <use xlink:href="#DejaVuSans-Bold-20" transform="translate(1229.052734 0)"/>
     <use xlink:href="#DejaVuSans-Bold-72" transform="translate(1263.867188 0)"/>
     <use xlink:href="#DejaVuSans-Bold-65" transform="translate(1313.183594 0)"/>
     <use xlink:href="#DejaVuSans-Bold-70" transform="translate(1381.005859 0)"/>
     <use xlink:href="#DejaVuSans-Bold-65" transform="translate(1452.587891 0)"/>
     <use xlink:href="#DejaVuSans-Bold-61" transform="translate(1520.410156 0)"/>
     <use xlink:href="#DejaVuSans-Bold-74" transform="translate(1587.890625 0)"/>
     <use xlink:href="#DejaVuSans-Bold-73" transform="translate(1635.693359 0)"/>
     <use xlink:href="#DejaVuSans-Bold-29" transform="translate(1695.214844 0)"/>
    </g>
   </g>
   <g id="line2d_20">
    <path d="M 34.240625 338.285927 
L 872.691569 338.285927 
" clip-path="url(#p5a6bd72363)" style="fill: none; stroke-dasharray: 4.44,1.92; stroke-dashoffset: 0; stroke: #757575; stroke-width: 1.2"/>
   </g>
   <g id="legend_1">
    <g id="patch_27">
     <path d="M 746.314694 99.8905 
L 866.391569 99.8905 
Q 868.191569 99.8905 868.191569 98.0905 
L 868.191569 46.14925 
Q 868.191569 44.34925 866.391569 44.34925 
L 746.314694 44.34925 
Q 744.514694 44.34925 744.514694 46.14925 
L 744.514694 98.0905 
Q 744.514694 99.8905 746.314694 99.8905 
z
" style="fill: #ffffff; opacity: 0.8; stroke: #cccccc; stroke-linejoin: miter"/>
    </g>
    <g id="patch_28">
     <path d="M 748.114694 54.787844 
L 766.114694 54.787844 
L 766.114694 48.487844 
L 748.114694 48.487844 
z
" style="fill: #42a5f5"/>
    </g>
    <g id="text_36">
     <!-- DSSim DSQueue -->
     <g transform="translate(773.314694 54.787844) scale(0.09 -0.09)">
      <defs>
       <path id="DejaVuSans-44" d="M 1259 4147 
L 1259 519 
L 2022 519 
Q 2988 519 3436 956 
Q 3884 1394 3884 2338 
Q 3884 3275 3436 3711 
Q 2988 4147 2022 4147 
L 1259 4147 
z
M 628 4666 
L 1925 4666 
Q 3281 4666 3915 4102 
Q 4550 3538 4550 2338 
Q 4550 1131 3912 565 
Q 3275 0 1925 0 
L 628 0 
L 628 4666 
z
" transform="scale(0.015625)"/>
       <path id="DejaVuSans-51" d="M 2522 4238 
Q 1834 4238 1429 3725 
Q 1025 3213 1025 2328 
Q 1025 1447 1429 934 
Q 1834 422 2522 422 
Q 3209 422 3611 934 
Q 4013 1447 4013 2328 
Q 4013 3213 3611 3725 
Q 3209 4238 2522 4238 
z
M 3406 84 
L 4238 -825 
L 3475 -825 
L 2784 -78 
Q 2681 -84 2626 -87 
Q 2572 -91 2522 -91 
Q 1538 -91 948 567 
Q 359 1225 359 2328 
Q 359 3434 948 4092 
Q 1538 4750 2522 4750 
Q 3503 4750 4090 4092 
Q 4678 3434 4678 2328 
Q 4678 1516 4351 937 
Q 4025 359 3406 84 
z
" transform="scale(0.015625)"/>
      </defs>
      <use xlink:href="#DejaVuSans-44"/>
      <use xlink:href="#DejaVuSans-53" transform="translate(77.001953 0)"/>
      <use xlink:href="#DejaVuSans-53" transform="translate(140.478516 0)"/>
      <use xlink:href="#DejaVuSans-69" transform="translate(203.955078 0)"/>
      <use xlink:href="#DejaVuSans-6d" transform="translate(231.738281 0)"/>
      <use xlink:href="#DejaVuSans-20" transform="translate(329.150391 0)"/>
      <use xlink:href="#DejaVuSans-44" transform="translate(360.9375 0)"/>
      <use xlink:href="#DejaVuSans-53" transform="translate(437.939453 0)"/>
      <use xlink:href="#DejaVuSans-51" transform="translate(501.416016 0)"/>
      <use xlink:href="#DejaVuSans-75" transform="translate(580.126953 0)"/>
      <use xlink:href="#DejaVuSans-65" transform="translate(643.505859 0)"/>
      <use xlink:href="#DejaVuSans-75" transform="translate(705.029297 0)"/>
      <use xlink:href="#DejaVuSans-65" transform="translate(768.408203 0)"/>
     </g>
    </g>
    <g id="patch_29">
     <path d="M 748.114694 67.998156 
L 766.114694 67.998156 
L 766.114694 61.698156 
L 748.114694 61.698156 
z
" style="fill: #1565c0"/>
    </g>
    <g id="text_37">
     <!-- DSSim DSLiteQueue -->
     <g transform="translate(773.314694 67.998156) scale(0.09 -0.09)">
      <defs>
       <path id="DejaVuSans-4c" d="M 628 4666 
L 1259 4666 
L 1259 531 
L 3531 531 
L 3531 0 
L 628 0 
L 628 4666 
z
" transform="scale(0.015625)"/>
      </defs>
      <use xlink:href="#DejaVuSans-44"/>
      <use xlink:href="#DejaVuSans-53" transform="translate(77.001953 0)"/>
      <use xlink:href="#DejaVuSans-53" transform="translate(140.478516 0)"/>
      <use xlink:href="#DejaVuSans-69" transform="translate(203.955078 0)"/>
      <use xlink:href="#DejaVuSans-6d" transform="translate(231.738281 0)"/>
      <use xlink:href="#DejaVuSans-20" transform="translate(329.150391 0)"/>
      <use xlink:href="#DejaVuSans-44" transform="translate(360.9375 0)"/>
      <use xlink:href="#DejaVuSans-53" transform="translate(437.939453 0)"/>
      <use xlink:href="#DejaVuSans-4c" transform="translate(501.416016 0)"/>
      <use xlink:href="#DejaVuSans-69" transform="translate(557.128906 0)"/>
      <use xlink:href="#DejaVuSans-74" transform="translate(584.912109 0)"/>
      <use xlink:href="#DejaVuSans-65" transform="translate(624.121094 0)"/>
      <use xlink:href="#DejaVuSans-51" transform="translate(685.644531 0)"/>
      <use xlink:href="#DejaVuSans-75" transform="translate(764.355469 0)"/>
      <use xlink:href="#DejaVuSans-65" transform="translate(827.734375 0)"/>
      <use xlink:href="#DejaVuSans-75" transform="translate(889.257812 0)"/>
      <use xlink:href="#DejaVuSans-65" transform="translate(952.636719 0)"/>
     </g>
    </g>
    <g id="patch_30">
     <path d="M 748.114694 81.208469 
L 766.114694 81.208469 
L 766.114694 74.908469 
L 748.114694 74.908469 
z
" style="fill: #757575"/>
    </g>
    <g id="text_38">
     <!-- SimPy Store -->
     <g transform="translate(773.314694 81.208469) scale(0.09 -0.09)">
      <use xlink:href="#DejaVuSans-53"/>
      <use xlink:href="#DejaVuSans-69" transform="translate(63.476562 0)"/>
      <use xlink:href="#DejaVuSans-6d" transform="translate(91.259766 0)"/>
      <use xlink:href="#DejaVuSans-50" transform="translate(188.671875 0)"/>
      <use xlink:href="#DejaVuSans-79" transform="translate(248.974609 0)"/>
      <use xlink:href="#DejaVuSans-20" transform="translate(308.154297 0)"/>
      <use xlink:href="#DejaVuSans-53" transform="translate(339.941406 0)"/>
      <use xlink:href="#DejaVuSans-74" transform="translate(403.417969 0)"/>
      <use xlink:href="#DejaVuSans-6f" transform="translate(442.626953 0)"/>
      <use xlink:href="#DejaVuSans-72" transform="translate(503.808594 0)"/>
      <use xlink:href="#DejaVuSans-65" transform="translate(542.671875 0)"/>
     </g>
    </g>
    <g id="patch_31">
     <path d="M 748.114694 94.418781 
L 766.114694 94.418781 
L 766.114694 88.118781 
L 748.114694 88.118781 
z
" style="fill: #ef9a9a"/>
    </g>
    <g id="text_39">
     <!-- salabim Store -->
     <g transform="translate(773.314694 94.418781) scale(0.09 -0.09)">
      <use xlink:href="#DejaVuSans-73"/>
      <use xlink:href="#DejaVuSans-61" transform="translate(52.099609 0)"/>
      <use xlink:href="#DejaVuSans-6c" transform="translate(113.378906 0)"/>
      <use xlink:href="#DejaVuSans-61" transform="translate(141.162109 0)"/>
      <use xlink:href="#DejaVuSans-62" transform="translate(202.441406 0)"/>
      <use xlink:href="#DejaVuSans-69" transform="translate(265.917969 0)"/>
      <use xlink:href="#DejaVuSans-6d" transform="translate(293.701172 0)"/>
      <use xlink:href="#DejaVuSans-20" transform="translate(391.113281 0)"/>
      <use xlink:href="#DejaVuSans-53" transform="translate(422.900391 0)"/>
      <use xlink:href="#DejaVuSans-74" transform="translate(486.376953 0)"/>
      <use xlink:href="#DejaVuSans-6f" transform="translate(525.585938 0)"/>
      <use xlink:href="#DejaVuSans-72" transform="translate(586.767578 0)"/>
      <use xlink:href="#DejaVuSans-65" transform="translate(625.630859 0)"/>
     </g>
    </g>
   </g>
  </g>
  <g id="text_40">
   <!-- Python 3.12.3 · SimPy 4.1.1 · salabim 23.3.14 · higher is better -->
   <g style="fill: #666666" transform="translate(337.90625 434.63325) scale(0.08 -0.08)">
    <defs>
     <path id="DejaVuSans-Oblique-50" d="M 1081 4666 
L 2541 4666 
Q 3178 4666 3512 4369 
Q 3847 4072 3847 3500 
Q 3847 2731 3353 2303 
Q 2859 1875 1966 1875 
L 1172 1875 
L 806 0 
L 172 0 
L 1081 4666 
z
M 1613 4147 
L 1275 2394 
L 2069 2394 
Q 2606 2394 2893 2669 
Q 3181 2944 3181 3456 
Q 3181 3784 2986 3965 
Q 2791 4147 2438 4147 
L 1613 4147 
z
" transform="scale(0.015625)"/>
     <path id="DejaVuSans-Oblique-79" d="M 1588 -325 
Q 1188 -997 936 -1164 
Q 684 -1331 294 -1331 
L -159 -1331 
L -63 -850 
L 269 -850 
Q 509 -850 678 -719 
Q 847 -588 1056 -206 
L 1234 128 
L 459 3500 
L 1069 3500 
L 1650 819 
L 3256 3500 
L 3859 3500 
L 1588 -325 
z
" transform="scale(0.015625)"/>
     <path id="DejaVuSans-Oblique-74" d="M 2706 3500 
L 2619 3053 
L 1472 3053 
L 1100 1153 
Q 1081 1047 1072 975 
Q 1063 903 1063 863 
Q 1063 663 1183 572 
Q 1303 481 1569 481 
L 2150 481 
L 2053 0 
L 1503 0 
Q 991 0 739 200 
Q 488 400 488 806 
Q 488 878 497 964 
Q 506 1050 525 1153 
L 897 3053 
L 409 3053 
L 500 3500 
L 978 3500 
L 1172 4494 
L 1747 4494 
L 1556 3500 
L 2706 3500 
z
" transform="scale(0.015625)"/>
     <path id="DejaVuSans-Oblique-68" d="M 3566 2113 
L 3156 0 
L 2578 0 
L 2988 2091 
Q 3016 2238 3031 2350 
Q 3047 2463 3047 2528 
Q 3047 2791 2881 2937 
Q 2716 3084 2419 3084 
Q 1956 3084 1617 2771 
Q 1278 2459 1178 1941 
L 800 0 
L 225 0 
L 1172 4863 
L 1747 4863 
L 1375 2950 
Q 1594 3244 1934 3414 
Q 2275 3584 2650 3584 
Q 3113 3584 3367 3334 
Q 3622 3084 3622 2631 
Q 3622 2519 3608 2391 
Q 3594 2263 3566 2113 
z
" transform="scale(0.015625)"/>
     <path id="DejaVuSans-Oblique-6f" d="M 1625 -91 
Q 1009 -91 651 289 
Q 294 669 294 1325 
Q 294 1706 417 2101 
Q 541 2497 738 2766 
Q 1047 3184 1428 3384 
Q 1809 3584 2291 3584 
Q 2888 3584 3255 3212 
Q 3622 2841 3622 2241 
Q 3622 1825 3500 1412 
Q 3378 1000 3181 728 
Q 2875 309 2494 109 
Q 2113 -91 1625 -91 
z
M 891 1344 
Q 891 869 1089 633 
Q 1288 397 1691 397 
Q 2269 397 2648 901 
Q 3028 1406 3028 2181 
Q 3028 2634 2825 2865 
Q 2622 3097 2228 3097 
Q 1903 3097 1650 2945 
Q 1397 2794 1197 2484 
Q 1050 2253 970 1956 
Q 891 1659 891 1344 
z
" transform="scale(0.015625)"/>
     <path id="DejaVuSans-Oblique-6e" d="M 3566 2113 
L 3156 0 
L 2578 0 
L 2988 2091 
Q 3016 2238 3031 2350 
Q 3047 2463 3047 2528 
Q 3047 2791 2881 2937 
Q 2716 3084 2419 3084 
Q 1956 3084 1622 2776 
Q 1288 2469 1184 1941 
L 800 0 
L 225 0 
L 903 3500 
L 1478 3500 
L 1363 2950 
Q 1603 3253 1940 3418 
Q 2278 3584 2650 3584 
Q 3113 3584 3367 3334 
Q 3622 3084 3622 2631 
Q 3622 2519 3608 2391 
Q 3594 2263 3566 2113 
z
" transform="scale(0.015625)"/>
     <path id="DejaVuSans-Oblique-20" transform="scale(0.015625)"/>
     <path id="DejaVuSans-Oblique-33" d="M 1013 4550 
Q 1356 4650 1679 4700 
Q 2003 4750 2316 4750 
Q 2934 4750 3296 4475 
Q 3659 4200 3659 3738 
Q 3659 3284 3373 2959 
Q 3088 2634 2584 2516 
Q 2978 2403 3162 2165 
Q 3347 1928 3347 1538 
Q 3347 1163 3167 834 
Q 2988 506 2650 269 
Q 2394 88 2037 -1 
Q 1681 -91 1216 -91 
Q 922 -91 622 -33 
Q 322 25 13 141 
L 128 738 
Q 422 575 720 495 
Q 1019 416 1331 416 
Q 1947 416 2330 733 
Q 2713 1050 2713 1556 
Q 2713 1881 2469 2057 
Q 2225 2234 1772 2234 
L 1228 2234 
L 1325 2747 
L 1900 2747 
Q 2419 2747 2717 2984 
Q 3016 3222 3016 3628 
Q 3016 3922 2797 4083 
Q 2578 4244 2181 4244 
Q 1881 4244 1567 4180 
Q 1253 4116 916 3988 
L 1013 4550 
z
" transform="scale(0.015625)"/>
     <path id="DejaVuSans-Oblique-2e" d="M 525 794 
L 1184 794 
L 1031 0 
L 372 0 
L 525 794 
z
" transform="scale(0.015625)"/>
     <path id="DejaVuSans-Oblique-31" d="M 416 531 
L 1447 531 
L 2144 4122 
L 978 3897 
L 1088 4441 
L 2247 4666 
L 2881 4666 
L 2075 531 
L 3103 531 
L 3003 0 
L 313 0 
L 416 531 
z
" transform="scale(0.015625)"/>
     <path id="DejaVuSans-Oblique-32" d="M 2950 2253 
L 934 525 
L 3163 525 
L 3053 0 
L 25 0 
L 128 531 
L 2234 2338 
Q 2656 2703 2832 2979 
Q 3009 3256 3009 3547 
Q 3009 3850 2796 4040 
Q 2584 4231 2241 4231 
Q 1944 4231 1581 4125 
Q 1219 4019 806 3816 
L 922 4441 
Q 1309 4594 1662 4672 
Q 2016 4750 2316 4750 
Q 2928 4750 3301 4425 
Q 3675 4100 3675 3572 
Q 3675 3216 3497 2892 
Q 3319 2569 2950 2253 
z
" transform="scale(0.015625)"/>
     <path id="DejaVuSans-Oblique-b7" d="M 884 2619 
L 1544 2619 
L 1388 1825 
L 728 1825 
L 884 2619 
z
" transform="scale(0.015625)"/>
     <path id="DejaVuSans-Oblique-53" d="M 3859 4513 
L 3738 3897 
Q 3422 4066 3111 4152 
Q 2800 4238 2509 4238 
Q 1944 4238 1609 3991 
Q 1275 3744 1275 3334 
Q 1275 3109 1398 2989 
Q 1522 2869 2034 2731 
L 2413 2638 
Q 3053 2472 3303 2217 
Q 3553 1963 3553 1503 
Q 3553 797 2998 353 
Q 2444 -91 1538 -91 
Q 1166 -91 791 -17 
Q 416 56 38 206 
L 166 856 
Q 513 641 861 531 
Q 1209 422 1556 422 
Q 2147 422 2503 684 
Q 2859 947 2859 1369 
Q 2859 1650 2717 1795 
Q 2575 1941 2106 2059 
L 1728 2156 
Q 1081 2325 845 2545 
Q 609 2766 609 3163 
Q 609 3859 1145 4304 
Q 1681 4750 2541 4750 
Q 2875 4750 3203 4690 
Q 3531 4631 3859 4513 
z
" transform="scale(0.015625)"/>
     <path id="DejaVuSans-Oblique-69" d="M 1172 4863 
L 1747 4863 
L 1606 4134 
L 1031 4134 
L 1172 4863 
z
M 909 3500 
L 1484 3500 
L 800 0 
L 225 0 
L 909 3500 
z
" transform="scale(0.015625)"/>
     <path id="DejaVuSans-Oblique-6d" d="M 5747 2113 
L 5338 0 
L 4763 0 
L 5166 2094 
Q 5191 2228 5203 2325 
Q 5216 2422 5216 2491 
Q 5216 2772 5059 2928 
Q 4903 3084 4622 3084 
Q 4203 3084 3875 2770 
Q 3547 2456 3450 1953 
L 3066 0 
L 2491 0 
L 2900 2094 
Q 2925 2209 2937 2307 
Q 2950 2406 2950 2484 
Q 2950 2769 2794 2926 
Q 2638 3084 2363 3084 
Q 1938 3084 1609 2770 
Q 1281 2456 1184 1953 
L 800 0 
L 225 0 
L 909 3500 
L 1484 3500 
L 1375 2956 
Q 1609 3263 1923 3423 
Q 2238 3584 2597 3584 
Q 2978 3584 3223 3384 
Q 3469 3184 3519 2828 
Q 3781 3197 4126 3390 
Q 4472 3584 4856 3584 
Q 5306 3584 5551 3325 
Q 5797 3066 5797 2591 
Q 5797 2488 5784 2364 
Q 5772 2241 5747 2113 
z
" transform="scale(0.015625)"/>
     <path id="DejaVuSans-Oblique-34" d="M 2753 4666 
L 3547 4666 
L 2950 1625 
L 3616 1625 
L 3513 1100 
L 2847 1100 
L 2638 0 
L 2009 0 
L 2222 1100 
L 116 1100 
L 238 1709 
L 2753 4666 
z
M 2809 4116 
L 728 1625 
L 2322 1625 
L 2809 4116 
z
" transform="scale(0.015625)"/>
     <path id="DejaVuSans-Oblique-73" d="M 3200 3397 
L 3091 2853 
Q 2863 2978 2609 3040 
Q 2356 3103 2088 3103 
Q 1634 3103 1373 2948 
Q 1113 2794 1113 2528 
Q 1113 2219 1719 2053 
Q 1766 2041 1788 2034 
L 1972 1978 
Q 2547 1819 2739 1644 
Q 2931 1469 2931 1166 
Q 2931 609 2489 259 
Q 2047 -91 1331 -91 
Q 1053 -91 747 -37 
Q 441 16 72 128 
L 184 722 
Q 500 559 806 475 
Q 1113 391 1394 391 
Q 1816 391 2080 572 
Q 2344 753 2344 1031 
Q 2344 1331 1650 1516 
L 1591 1531 
L 1394 1581 
Q 956 1697 753 1886 
Q 550 2075 550 2369 
Q 550 2928 970 3256 
Q 1391 3584 2113 3584 
Q 2397 3584 2667 3537 
Q 2938 3491 3200 3397 
z
" transform="scale(0.015625)"/>
     <path id="DejaVuSans-Oblique-61" d="M 3438 1997 
L 3047 0 
L 2472 0 
L 2578 531 
Q 2325 219 2001 64 
Q 1678 -91 1281 -91 
Q 834 -91 548 182 
Q 263 456 263 884 
Q 263 1497 752 1853 
Q 1241 2209 2100 2209 
L 2900 2209 
L 2931 2363 
Q 2938 2388 2941 2417 
Q 2944 2447 2944 2509 
Q 2944 2788 2717 2942 
Q 2491 3097 2081 3097 
Q 1800 3097 1504 3025 
Q 1209 2953 897 2809 
L 997 3341 
Q 1322 3463 1633 3523 
Q 1944 3584 2234 3584 
Q 2853 3584 3176 3315 
Q 3500 3047 3500 2534 
Q 3500 2431 3484 2292 
Q 3469 2153 3438 1997 
z
M 2816 1759 
L 2241 1759 
Q 1534 1759 1195 1570 
Q 856 1381 856 984 
Q 856 709 1029 553 
Q 1203 397 1509 397 
Q 1978 397 2328 733 
Q 2678 1069 2791 1631 
L 2816 1759 
z
" transform="scale(0.015625)"/>
     <path id="DejaVuSans-Oblique-6c" d="M 1172 4863 
L 1747 4863 
L 800 0 
L 225 0 
L 1172 4863 
z
" transform="scale(0.015625)"/>
     <path id="DejaVuSans-Oblique-62" d="M 3169 2138 
Q 3169 2591 2961 2847 
Q 2753 3103 2388 3103 
Q 2122 3103 1889 2973 
Q 1656 2844 1484 2597 
Q 1303 2338 1198 1995 
Q 1094 1653 1094 1313 
Q 1094 881 1298 636 
Q 1503 391 1863 391 
Q 2134 391 2365 517 
Q 2597 644 2772 891 
Q 2950 1147 3059 1487 
Q 3169 1828 3169 2138 
z
M 1381 2969 
Q 1594 3256 1914 3420 
Q 2234 3584 2584 3584 
Q 3122 3584 3439 3221 
Q 3756 2859 3756 2241 
Q 3756 1734 3570 1259 
Q 3384 784 3041 416 
Q 2816 172 2522 40 
Q 2228 -91 1906 -91 
Q 1566 -91 1316 65 
Q 1066 222 909 531 
L 806 0 
L 231 0 
L 1178 4863 
L 1753 4863 
L 1381 2969 
z
" transform="scale(0.015625)"/>
     <path id="DejaVuSans-Oblique-67" d="M 3816 3500 
L 3219 434 
Q 3047 -456 2561 -893 
Q 2075 -1331 1253 -1331 
Q 950 -1331 690 -1286 
Q 431 -1241 206 -1147 
L 313 -588 
Q 525 -725 762 -790 
Q 1000 -856 1269 -856 
Q 1816 -856 2167 -557 
Q 2519 -259 2631 300 
L 2681 563 
Q 2441 288 2122 144 
Q 1803 0 1434 0 
Q 903 0 598 351 
Q 294 703 294 1319 
Q 294 1803 478 2267 
Q 663 2731 997 3091 
Q 1219 3328 1514 3456 
Q 1809 3584 2131 3584 
Q 2484 3584 2746 3420 
Q 3009 3256 3138 2956 
L 3238 3500 
L 3816 3500 
z
M 2950 2216 
Q 2950 2641 2750 2872 
Q 2550 3103 2181 3103 
Q 1953 3103 1747 3012 
Q 1541 2922 1394 2759 
Q 1156 2491 1023 2127 
Q 891 1763 891 1375 
Q 891 944 1092 712 
Q 1294 481 1672 481 
Q 2219 481 2584 976 
Q 2950 1472 2950 2216 
z
" transform="scale(0.015625)"/>
     <path id="DejaVuSans-Oblique-65" d="M 3078 2063 
Q 3088 2113 3092 2166 
Q 3097 2219 3097 2272 
Q 3097 2653 2873 2875 
Q 2650 3097 2266 3097 
Q 1838 3097 1509 2826 
Q 1181 2556 1013 2059 
L 3078 2063 
z
M 3578 1613 
L 903 1613 
Q 884 1494 878 1425 
Q 872 1356 872 1306 
Q 872 872 1139 634 
Q 1406 397 1894 397 
Q 2269 397 2603 481 
Q 2938 566 3225 728 
L 3116 159 
Q 2806 34 2476 -28 
Q 2147 -91 1806 -91 
Q 1078 -91 686 257 
Q 294 606 294 1247 
Q 294 1794 489 2264 
Q 684 2734 1063 3103 
Q 1306 3334 1642 3459 
Q 1978 3584 2356 3584 
Q 2950 3584 3301 3228 
Q 3653 2872 3653 2272 
Q 3653 2128 3634 1964 
Q 3616 1800 3578 1613 
z
" transform="scale(0.015625)"/>
     <path id="DejaVuSans-Oblique-72" d="M 2853 2969 
Q 2766 3016 2653 3041 
Q 2541 3066 2413 3066 
Q 1953 3066 1609 2717 
Q 1266 2369 1153 1784 
L 800 0 
L 225 0 
L 909 3500 
L 1484 3500 
L 1375 2956 
Q 1603 3259 1920 3421 
Q 2238 3584 2597 3584 
Q 2691 3584 2781 3573 
Q 2872 3563 2963 3538 
L 2853 2969 
z
" transform="scale(0.015625)"/>
    </defs>
    <use xlink:href="#DejaVuSans-Oblique-50"/>
    <use xlink:href="#DejaVuSans-Oblique-79" transform="translate(60.302734 0)"/>
    <use xlink:href="#DejaVuSans-Oblique-74" transform="translate(119.482422 0)"/>
    <use xlink:href="#DejaVuSans-Oblique-68" transform="translate(158.691406 0)"/>
    <use xlink:href="#DejaVuSans-Oblique-6f" transform="translate(222.070312 0)"/>
    <use xlink:href="#DejaVuSans-Oblique-6e" transform="translate(283.251953 0)"/>
    <use xlink:href="#DejaVuSans-Oblique-20" transform="translate(346.630859 0)"/>
    <use xlink:href="#DejaVuSans-Oblique-33" transform="translate(378.417969 0)"/>
    <use xlink:href="#DejaVuSans-Oblique-2e" transform="translate(442.041016 0)"/>
    <use xlink:href="#DejaVuSans-Oblique-31" transform="translate(473.828125 0)"/>
    <use xlink:href="#DejaVuSans-Oblique-32" transform="translate(537.451172 0)"/>
    <use xlink:href="#DejaVuSans-Oblique-2e" transform="translate(601.074219 0)"/>
    <use xlink:href="#DejaVuSans-Oblique-33" transform="translate(632.861328 0)"/>
    <use xlink:href="#DejaVuSans-Oblique-20" transform="translate(696.484375 0)"/>
    <use xlink:href="#DejaVuSans-Oblique-b7" transform="translate(728.271484 0)"/>
    <use xlink:href="#DejaVuSans-Oblique-20" transform="translate(760.058594 0)"/>
    <use xlink:href="#DejaVuSans-Oblique-53" transform="translate(791.845703 0)"/>
    <use xlink:href="#DejaVuSans-Oblique-69" transform="translate(855.322266 0)"/>
    <use xlink:href="#DejaVuSans-Oblique-6d" transform="translate(883.105469 0)"/>
    <use xlink:href="#DejaVuSans-Oblique-50" transform="translate(980.517578 0)"/>
    <use xlink:href="#DejaVuSans-Oblique-79" transform="translate(1040.820312 0)"/>
    <use xlink:href="#DejaVuSans-Oblique-20" transform="translate(1100 0)"/>
    <use xlink:href="#DejaVuSans-Oblique-34" transform="translate(1131.787109 0)"/>
    <use xlink:href="#DejaVuSans-Oblique-2e" transform="translate(1195.410156 0)"/>
    <use xlink:href="#DejaVuSans-Oblique-31" transform="translate(1227.197266 0)"/>
    <use xlink:href="#DejaVuSans-Oblique-2e" transform="translate(1290.820312 0)"/>
    <use xlink:href="#DejaVuSans-Oblique-31" transform="translate(1322.607422 0)"/>
    <use xlink:href="#DejaVuSans-Oblique-20" transform="translate(1386.230469 0)"/>
    <use xlink:href="#DejaVuSans-Oblique-b7" transform="translate(1418.017578 0)"/>
    <use xlink:href="#DejaVuSans-Oblique-20" transform="translate(1449.804688 0)"/>
    <use xlink:href="#DejaVuSans-Oblique-73" transform="translate(1481.591797 0)"/>
    <use xlink:href="#DejaVuSans-Oblique-61" transform="translate(1533.691406 0)"/>
    <use xlink:href="#DejaVuSans-Oblique-6c" transform="translate(1594.970703 0)"/>
    <use xlink:href="#DejaVuSans-Oblique-61" transform="translate(1622.753906 0)"/>
    <use xlink:href="#DejaVuSans-Oblique-62" transform="translate(1684.033203 0)"/>
    <use xlink:href="#DejaVuSans-Oblique-69" transform="translate(1747.509766 0)"/>
    <use xlink:href="#DejaVuSans-Oblique-6d" transform="translate(1775.292969 0)"/>
    <use xlink:href="#DejaVuSans-Oblique-20" transform="translate(1872.705078 0)"/>
    <use xlink:href="#DejaVuSans-Oblique-32" transform="translate(1904.492188 0)"/>
    <use xlink:href="#DejaVuSans-Oblique-33" transform="translate(1968.115234 0)"/>
    <use xlink:href="#DejaVuSans-Oblique-2e" transform="translate(2031.738281 0)"/>
    <use xlink:href="#DejaVuSans-Oblique-33" transform="translate(2063.525391 0)"/>
    <use xlink:href="#DejaVuSans-Oblique-2e" transform="translate(2127.148438 0)"/>
    <use xlink:href="#DejaVuSans-Oblique-31" transform="translate(2158.935547 0)"/>
    <use xlink:href="#DejaVuSans-Oblique-34" transform="translate(2222.558594 0)"/>
    <use xlink:href="#DejaVuSans-Oblique-20" transform="translate(2286.181641 0)"/>
    <use xlink:href="#DejaVuSans-Oblique-b7" transform="translate(2317.96875 0)"/>
    <use xlink:href="#DejaVuSans-Oblique-20" transform="translate(2349.755859 0)"/>
    <use xlink:href="#DejaVuSans-Oblique-68" transform="translate(2381.542969 0)"/>
    <use xlink:href="#DejaVuSans-Oblique-69" transform="translate(2444.921875 0)"/>
    <use xlink:href="#DejaVuSans-Oblique-67" transform="translate(2472.705078 0)"/>
    <use xlink:href="#DejaVuSans-Oblique-68" transform="translate(2536.181641 0)"/>
    <use xlink:href="#DejaVuSans-Oblique-65" transform="translate(2599.560547 0)"/>
    <use xlink:href="#DejaVuSans-Oblique-72" transform="translate(2661.083984 0)"/>
    <use xlink:href="#DejaVuSans-Oblique-20" transform="translate(2702.197266 0)"/>
    <use xlink:href="#DejaVuSans-Oblique-69" transform="translate(2733.984375 0)"/>
    <use xlink:href="#DejaVuSans-Oblique-73" transform="translate(2761.767578 0)"/>
    <use xlink:href="#DejaVuSans-Oblique-20" transform="translate(2813.867188 0)"/>
    <use xlink:href="#DejaVuSans-Oblique-62" transform="translate(2845.654297 0)"/>
    <use xlink:href="#DejaVuSans-Oblique-65" transform="translate(2909.130859 0)"/>
    <use xlink:href="#DejaVuSans-Oblique-74" transform="translate(2970.654297 0)"/>
    <use xlink:href="#DejaVuSans-Oblique-74" transform="translate(3009.863281 0)"/>
    <use xlink:href="#DejaVuSans-Oblique-65" transform="translate(3049.072266 0)"/>
    <use xlink:href="#DejaVuSans-Oblique-72" transform="translate(3110.595703 0)"/>
   </g>
  </g>
 </g>
 <defs>
  <clipPath id="p5a6bd72363">
   <rect x="34.240625" y="39.84925" width="838.450944" height="348.184"/>
  </clipPath>
 </defs>
</svg>
